<?xml version="1.0" encoding="utf-8"?>
<!-- Generator: Adobe Illustrator 25.2.3, SVG Export Plug-In . SVG Version: 6.00 Build 0)  -->
<svg version="1.1" id="Layer_1" xmlns="http://www.w3.org/2000/svg" xmlns:xlink="http://www.w3.org/1999/xlink" x="0px" y="0px"
	 viewBox="0 0 500 56.09" style="enable-background:new 0 0 500 56.09;" xml:space="preserve">
<style type="text/css">
	.st0{fill:#67C3A5;}
	.st1{fill:#333333;}
</style>
<g>
	<g>
		<path class="st0" d="M263.62,0v56.09h-3.12V0L263.62,0z"/>
		<path class="st0" d="M500,0v56.09h-3.12V0L500,0z"/>
		<path class="st1" d="M283.77,19.67c-1.85,2.02-3.98,3.03-6.39,3.03c-1.35,0-2.59-0.29-3.73-0.86c-1.12-0.57-2.1-1.34-2.94-2.28
			c-0.82-0.95-1.47-2.01-1.93-3.2c-0.47-1.21-0.7-2.44-0.7-3.7c0-1.32,0.22-2.58,0.67-3.78c0.47-1.21,1.11-2.26,1.93-3.17
			c0.82-0.93,1.79-1.66,2.92-2.2c1.12-0.56,2.35-0.83,3.67-0.83c0.97,0,1.86,0.11,2.66,0.33c0.8,0.2,1.51,0.5,2.13,0.89
			c0.64,0.37,1.18,0.83,1.63,1.36c0.47,0.52,0.86,1.09,1.18,1.72l-1.51,1c-0.65-1.22-1.5-2.12-2.55-2.7
			c-1.05-0.57-2.23-0.86-3.56-0.86c-1.1,0-2.1,0.23-3,0.7c-0.88,0.46-1.64,1.09-2.27,1.86c-0.62,0.76-1.09,1.64-1.43,2.64
			c-0.34,0.98-0.5,2-0.5,3.06c0,1.11,0.19,2.17,0.56,3.17c0.39,1,0.93,1.88,1.6,2.64c0.67,0.74,1.46,1.34,2.35,1.78
			c0.92,0.45,1.91,0.67,2.97,0.67c1.14,0,2.22-0.26,3.25-0.78c1.05-0.54,2.05-1.38,3-2.53v-3.28h-4.43v-1.5h6.08v9.71h-1.65V19.67z"
			/>
		<path class="st1" d="M289.46,22.56V2.81h1.96v18.03h11.49v1.72H289.46z"/>
		<path class="st1" d="M312.56,22.7c-1.38,0-2.65-0.28-3.81-0.83c-1.14-0.58-2.12-1.33-2.94-2.25c-0.82-0.95-1.46-2.02-1.91-3.23
			c-0.45-1.21-0.67-2.44-0.67-3.7c0-1.32,0.23-2.58,0.7-3.78c0.49-1.21,1.15-2.27,1.99-3.2c0.84-0.93,1.83-1.66,2.97-2.2
			c1.14-0.56,2.37-0.83,3.7-0.83c1.38,0,2.64,0.3,3.78,0.89c1.16,0.57,2.14,1.34,2.94,2.28c0.82,0.95,1.46,2.02,1.91,3.23
			c0.45,1.19,0.67,2.4,0.67,3.64c0,1.32-0.24,2.58-0.73,3.78c-0.47,1.21-1.12,2.27-1.96,3.2c-0.82,0.91-1.8,1.64-2.94,2.2
			C315.12,22.43,313.88,22.7,312.56,22.7z M305.19,12.69c0,1.08,0.18,2.11,0.53,3.12c0.36,0.98,0.86,1.86,1.51,2.64
			c0.65,0.76,1.43,1.37,2.33,1.84c0.9,0.45,1.9,0.67,3,0.67c1.12,0,2.14-0.24,3.06-0.72c0.92-0.48,1.69-1.11,2.33-1.89
			c0.64-0.78,1.12-1.66,1.46-2.64c0.35-0.98,0.53-1.98,0.53-3c0-1.08-0.19-2.11-0.56-3.09c-0.35-1-0.86-1.88-1.51-2.64
			c-0.65-0.76-1.43-1.36-2.33-1.81c-0.9-0.46-1.89-0.7-2.97-0.7c-1.12,0-2.14,0.24-3.05,0.72c-0.92,0.46-1.69,1.09-2.33,1.86
			s-1.13,1.66-1.49,2.64C305.35,10.67,305.19,11.67,305.19,12.69z"/>
		<path class="st1" d="M340.56,17.47c0,0.74-0.15,1.43-0.45,2.06c-0.3,0.61-0.7,1.15-1.21,1.61c-0.5,0.45-1.09,0.8-1.77,1.06
			c-0.67,0.24-1.39,0.36-2.16,0.36h-9.39V2.81h9.59c0.69,0,1.32,0.15,1.88,0.45c0.56,0.3,1.04,0.69,1.43,1.17
			c0.39,0.46,0.69,1,0.9,1.61c0.22,0.59,0.34,1.2,0.34,1.81c0,1-0.25,1.92-0.76,2.75c-0.5,0.82-1.21,1.43-2.1,1.84
			c1.14,0.33,2.04,0.96,2.69,1.86C340.22,15.21,340.56,16.27,340.56,17.47z M338.6,17.14c0-0.48-0.08-0.95-0.25-1.39
			c-0.17-0.46-0.41-0.86-0.73-1.2c-0.3-0.35-0.66-0.63-1.09-0.83c-0.41-0.22-0.86-0.33-1.35-0.33h-7.62v7.48h7.43
			c0.5,0,0.97-0.1,1.4-0.31c0.45-0.2,0.83-0.47,1.15-0.81c0.34-0.35,0.6-0.75,0.78-1.2C338.5,18.09,338.6,17.62,338.6,17.14z
			 M327.55,4.51v7.29h6.84c0.49,0,0.93-0.1,1.35-0.31c0.43-0.2,0.79-0.47,1.09-0.81c0.3-0.33,0.53-0.71,0.7-1.14
			c0.17-0.45,0.25-0.91,0.25-1.39c0-0.5-0.08-0.97-0.25-1.42c-0.15-0.45-0.37-0.83-0.67-1.14c-0.28-0.33-0.62-0.59-1.01-0.78
			c-0.39-0.2-0.82-0.31-1.29-0.31H327.55z"/>
		<path class="st1" d="M350.02,2.81h1.65l8.27,19.75h-2.07l-2.58-6.18h-8.94l-2.55,6.18h-2.1L350.02,2.81z M354.84,14.86l-4.01-9.77
			l-4.06,9.77H354.84z"/>
		<path class="st1" d="M362.79,22.56V2.81h1.96v18.03h11.49v1.72H362.79z"/>
		<path class="st1" d="M269.41,53.72V33.97h13.04v1.73h-11.08v7.26h9.35v1.61h-9.35v9.15H269.41z"/>
		<path class="st1" d="M293.46,53.86c-1.38,0-2.65-0.28-3.81-0.83c-1.14-0.58-2.12-1.33-2.94-2.25c-0.82-0.95-1.46-2.02-1.9-3.23
			c-0.45-1.21-0.67-2.44-0.67-3.7c0-1.32,0.23-2.58,0.7-3.78c0.49-1.21,1.15-2.27,1.99-3.2c0.84-0.93,1.83-1.66,2.97-2.2
			c1.14-0.56,2.37-0.83,3.69-0.83c1.38,0,2.64,0.3,3.78,0.89c1.16,0.57,2.14,1.34,2.94,2.28c0.82,0.95,1.46,2.02,1.9,3.23
			c0.45,1.19,0.67,2.4,0.67,3.64c0,1.32-0.24,2.58-0.73,3.78c-0.47,1.21-1.12,2.27-1.96,3.2c-0.82,0.91-1.8,1.64-2.94,2.2
			C296.02,53.59,294.78,53.86,293.46,53.86z M286.1,43.85c0,1.08,0.18,2.11,0.53,3.12c0.35,0.98,0.86,1.86,1.51,2.64
			c0.65,0.76,1.43,1.37,2.32,1.84c0.9,0.44,1.89,0.67,2.99,0.67c1.12,0,2.14-0.24,3.05-0.72c0.91-0.48,1.69-1.11,2.32-1.89
			c0.63-0.78,1.12-1.66,1.46-2.64c0.35-0.98,0.53-1.98,0.53-3c0-1.08-0.19-2.11-0.56-3.09c-0.35-1-0.86-1.88-1.51-2.64
			c-0.65-0.76-1.43-1.36-2.32-1.81c-0.9-0.46-1.88-0.7-2.97-0.7c-1.12,0-2.14,0.24-3.05,0.72c-0.91,0.46-1.69,1.09-2.32,1.86
			c-0.63,0.78-1.13,1.66-1.48,2.64C286.27,41.83,286.1,42.83,286.1,43.85z"/>
		<path class="st1" d="M314.48,53.86c-1.38,0-2.65-0.28-3.81-0.83c-1.14-0.58-2.12-1.33-2.94-2.25c-0.82-0.95-1.46-2.02-1.9-3.23
			c-0.45-1.21-0.67-2.44-0.67-3.7c0-1.32,0.23-2.58,0.7-3.78c0.49-1.21,1.15-2.27,1.99-3.2c0.84-0.93,1.83-1.66,2.97-2.2
			c1.14-0.56,2.37-0.83,3.69-0.83c1.38,0,2.64,0.3,3.78,0.89c1.16,0.57,2.14,1.34,2.94,2.28c0.82,0.95,1.46,2.02,1.9,3.23
			c0.45,1.19,0.67,2.4,0.67,3.64c0,1.32-0.24,2.58-0.73,3.78c-0.47,1.21-1.12,2.27-1.96,3.2c-0.82,0.91-1.8,1.64-2.94,2.2
			C317.03,53.59,315.8,53.86,314.48,53.86z M307.12,43.85c0,1.08,0.18,2.11,0.53,3.12c0.35,0.98,0.86,1.86,1.51,2.64
			c0.65,0.76,1.43,1.37,2.32,1.84c0.9,0.44,1.89,0.67,2.99,0.67c1.12,0,2.14-0.24,3.05-0.72c0.91-0.48,1.69-1.11,2.32-1.89
			c0.63-0.78,1.12-1.66,1.46-2.64c0.35-0.98,0.53-1.98,0.53-3c0-1.08-0.19-2.11-0.56-3.09c-0.35-1-0.86-1.88-1.51-2.64
			c-0.65-0.76-1.43-1.36-2.32-1.81c-0.9-0.46-1.88-0.7-2.97-0.7c-1.12,0-2.14,0.24-3.05,0.72c-0.91,0.46-1.69,1.09-2.32,1.86
			c-0.63,0.78-1.13,1.66-1.48,2.64C307.28,41.83,307.12,42.83,307.12,43.85z"/>
		<path class="st1" d="M327.49,53.72V33.97h6.75c1.59,0,2.97,0.26,4.14,0.78c1.19,0.52,2.18,1.22,2.97,2.11
			c0.8,0.89,1.4,1.94,1.79,3.14c0.41,1.19,0.62,2.46,0.62,3.81c0,1.5-0.22,2.87-0.67,4.09c-0.45,1.21-1.09,2.24-1.93,3.12
			c-0.82,0.85-1.82,1.52-3,2c-1.16,0.46-2.46,0.7-3.92,0.7H327.49z M341.79,43.82c0-1.19-0.17-2.27-0.5-3.26
			c-0.34-1-0.83-1.86-1.48-2.59c-0.63-0.72-1.42-1.28-2.35-1.67c-0.93-0.41-2.01-0.61-3.22-0.61h-4.79V52h4.79
			c1.23,0,2.31-0.2,3.25-0.61c0.95-0.43,1.74-1,2.38-1.72c0.63-0.74,1.11-1.6,1.43-2.59C341.62,46.07,341.79,44.99,341.79,43.82z"/>
		<path class="st0" d="M349.98,54.08V33.97h8.45c0.92,0,1.76,0.2,2.53,0.59c0.79,0.38,1.46,0.89,2.02,1.53
			c0.56,0.62,1,1.34,1.32,2.15c0.32,0.79,0.48,1.6,0.48,2.41c0,0.85-0.15,1.68-0.45,2.49c-0.3,0.79-0.72,1.5-1.26,2.12
			c-0.54,0.62-1.2,1.12-1.96,1.5c-0.77,0.38-1.61,0.57-2.53,0.57h-4.71v6.74H349.98z M353.86,43.91h4.49c0.71,0,1.3-0.29,1.77-0.88
			c0.49-0.59,0.73-1.38,0.73-2.38c0-0.51-0.08-0.96-0.22-1.36c-0.15-0.42-0.35-0.76-0.59-1.05c-0.24-0.28-0.53-0.49-0.87-0.62
			c-0.32-0.15-0.65-0.23-0.98-0.23h-4.32V43.91z"/>
		<path class="st0" d="M371.87,33.97h3.42l7.58,20.11h-3.98l-1.85-5.01h-6.96l-1.82,5.01h-3.98L371.87,33.97z M376.34,46.32
			l-2.75-7.9l-2.86,7.9H376.34z"/>
		<path class="st0" d="M385.06,54.08V33.97h8.81c0.92,0,1.76,0.2,2.53,0.59c0.79,0.38,1.46,0.89,2.02,1.53
			c0.56,0.62,1,1.34,1.32,2.15c0.32,0.79,0.48,1.6,0.48,2.41c0,1.3-0.33,2.49-0.98,3.57c-0.64,1.06-1.51,1.82-2.61,2.29l4.55,7.56
			h-4.35l-4.07-6.74h-3.82v6.74H385.06z M388.93,43.91h4.85c0.36,0,0.68-0.08,0.98-0.25c0.32-0.17,0.59-0.4,0.81-0.68
			c0.22-0.3,0.4-0.65,0.53-1.05c0.13-0.4,0.2-0.82,0.2-1.27c0-0.47-0.07-0.91-0.22-1.3c-0.15-0.4-0.36-0.74-0.62-1.02
			c-0.24-0.3-0.53-0.53-0.87-0.68c-0.32-0.17-0.65-0.25-0.98-0.25h-4.69V43.91z"/>
		<path class="st0" d="M418.32,37.4h-6.37v16.68h-3.84V37.4h-6.37v-3.43h16.58V37.4z"/>
		<path class="st0" d="M424.66,41.2v12.89h-3.87V33.97h3l10.38,13.2V34h3.87v20.08h-3.14L424.66,41.2z"/>
		<path class="st0" d="M456.03,50.65v3.43h-13.83V33.97h13.58v3.43h-9.71v4.84h8.39v3.17h-8.39v5.24H456.03z"/>
		<path class="st0" d="M459.04,54.08V33.97h8.81c0.92,0,1.76,0.2,2.53,0.59c0.79,0.38,1.46,0.89,2.02,1.53
			c0.56,0.62,1,1.34,1.32,2.15c0.32,0.79,0.48,1.6,0.48,2.41c0,1.3-0.33,2.49-0.98,3.57c-0.64,1.06-1.51,1.82-2.61,2.29l4.55,7.56
			h-4.35l-4.07-6.74h-3.82v6.74H459.04z M462.92,43.91h4.85c0.36,0,0.68-0.08,0.98-0.25c0.32-0.17,0.59-0.4,0.81-0.68
			c0.22-0.3,0.4-0.65,0.53-1.05c0.13-0.4,0.2-0.82,0.2-1.27c0-0.47-0.07-0.91-0.22-1.3c-0.15-0.4-0.36-0.74-0.62-1.02
			c-0.24-0.3-0.53-0.53-0.87-0.68c-0.32-0.17-0.65-0.25-0.98-0.25h-4.69V43.91z"/>
		<path class="st0" d="M489.57,39.24c-0.13-0.13-0.37-0.31-0.73-0.54c-0.34-0.23-0.76-0.44-1.26-0.65c-0.49-0.23-1.02-0.42-1.6-0.57
			c-0.58-0.15-1.17-0.23-1.77-0.23c-1.07,0-1.86,0.2-2.39,0.59c-0.52,0.4-0.79,0.95-0.79,1.67c0,0.42,0.09,0.76,0.28,1.05
			c0.21,0.26,0.5,0.5,0.87,0.71c0.37,0.21,0.84,0.4,1.4,0.57c0.58,0.17,1.24,0.35,1.99,0.54c0.97,0.26,1.85,0.55,2.64,0.85
			c0.8,0.3,1.48,0.68,2.02,1.13c0.56,0.45,0.99,1,1.29,1.64c0.3,0.62,0.45,1.4,0.45,2.32c0,1.08-0.21,2-0.62,2.78
			c-0.39,0.76-0.94,1.37-1.63,1.84c-0.67,0.47-1.46,0.82-2.36,1.05c-0.88,0.21-1.8,0.31-2.78,0.31c-1.5,0-2.97-0.23-4.43-0.68
			c-1.46-0.45-2.77-1.1-3.93-1.93l1.71-3.37c0.17,0.17,0.47,0.4,0.9,0.68c0.45,0.26,0.97,0.54,1.57,0.82
			c0.6,0.26,1.26,0.49,1.99,0.68c0.73,0.19,1.48,0.28,2.24,0.28c2.13,0,3.2-0.69,3.2-2.07c0-0.43-0.12-0.8-0.36-1.1
			c-0.24-0.3-0.59-0.57-1.04-0.79c-0.45-0.23-0.99-0.43-1.63-0.62c-0.64-0.19-1.35-0.4-2.13-0.62c-0.95-0.26-1.79-0.55-2.5-0.85
			c-0.69-0.32-1.27-0.69-1.74-1.1c-0.47-0.43-0.82-0.93-1.07-1.47c-0.22-0.57-0.34-1.24-0.34-2.01c0-1.02,0.19-1.93,0.56-2.72
			c0.37-0.79,0.89-1.45,1.54-1.98c0.67-0.53,1.45-0.93,2.33-1.19c0.88-0.28,1.82-0.42,2.83-0.42c1.4,0,2.69,0.23,3.87,0.68
			c1.18,0.43,2.21,0.95,3.09,1.56L489.57,39.24z"/>
	</g>
	<g>
		<path class="st1" d="M9.13,17.41h2.31L14,24.13l2.58-6.71h2.31l-3.34,8.4l3.32,7.96l6.52-16.47h2.66l-8.07,19.3h-2.12l-3.83-9.11
			l-3.86,9.11H8.05L0,17.31h2.64l6.55,16.47l3.29-7.96L9.13,17.41z"/>
		<path class="st1" d="M34.63,36.88c-1.07,0-2.05-0.2-2.94-0.58c-0.89-0.39-1.65-0.92-2.28-1.59c-0.63-0.67-1.13-1.45-1.48-2.35
			c-0.35-0.9-0.53-1.84-0.53-2.84c0-1,0.18-1.94,0.53-2.83c0.35-0.89,0.85-1.67,1.5-2.34c0.64-0.67,1.41-1.2,2.3-1.59
			c0.89-0.39,1.87-0.59,2.94-0.59c1.07,0,2.04,0.2,2.92,0.6c0.88,0.4,1.63,0.93,2.24,1.59c0.62,0.66,1.09,1.43,1.43,2.31
			c0.34,0.88,0.5,1.79,0.5,2.73c0,0.2,0,0.38-0.01,0.54c-0.01,0.16-0.02,0.29-0.04,0.38H29.93c0.05,0.71,0.22,1.35,0.49,1.93
			c0.27,0.58,0.63,1.08,1.06,1.5c0.44,0.42,0.93,0.74,1.48,0.98c0.55,0.24,1.14,0.35,1.75,0.35c0.44,0,0.86-0.06,1.28-0.18
			c0.42-0.12,0.81-0.28,1.17-0.48c0.36-0.2,0.68-0.44,0.97-0.73c0.28-0.29,0.49-0.62,0.64-0.98l2.07,0.57
			c-0.24,0.53-0.56,1.01-0.97,1.44c-0.41,0.43-0.88,0.81-1.41,1.13c-0.54,0.32-1.13,0.57-1.78,0.75
			C36.02,36.79,35.34,36.88,34.63,36.88z M39.5,28.56c-0.05-0.67-0.22-1.29-0.5-1.86s-0.63-1.06-1.06-1.45
			c-0.43-0.4-0.92-0.71-1.48-0.94c-0.56-0.23-1.16-0.34-1.79-0.34s-1.23,0.11-1.79,0.34s-1.06,0.54-1.48,0.95
			c-0.43,0.41-0.77,0.89-1.03,1.45c-0.26,0.56-0.42,1.18-0.48,1.85H39.5z"/>
		<path class="st1" d="M44.47,16.76h2.39v16.18c0,0.53,0.14,0.94,0.42,1.24c0.28,0.3,0.67,0.45,1.18,0.45c0.2,0,0.44-0.03,0.71-0.09
			c0.27-0.06,0.53-0.14,0.76-0.23l0.38,1.93c-0.4,0.16-0.87,0.3-1.41,0.41c-0.54,0.11-1.02,0.16-1.44,0.16
			c-0.92,0-1.65-0.26-2.19-0.79c-0.54-0.53-0.8-1.26-0.8-2.2V16.76z"/>
		<path class="st1" d="M52.96,36.61V24.29h-1.93v-1.87h1.93v-0.3c0-1.76,0.39-3.14,1.17-4.13c0.78-1,1.84-1.5,3.18-1.5
			c0.56,0,1.11,0.08,1.66,0.23c0.54,0.15,1.03,0.37,1.47,0.64l-0.6,1.77c-0.25-0.18-0.57-0.33-0.94-0.43
			c-0.37-0.11-0.74-0.16-1.1-0.16c-0.8,0-1.4,0.3-1.82,0.9c-0.42,0.6-0.62,1.47-0.62,2.61v0.38h3.78v1.87h-3.78v12.32H52.96z"/>
		<path class="st1" d="M65.16,36.88c-0.67,0-1.3-0.11-1.88-0.34c-0.58-0.23-1.08-0.54-1.51-0.94c-0.43-0.4-0.76-0.87-1.01-1.4
			c-0.24-0.53-0.37-1.12-0.37-1.75c0-0.65,0.15-1.25,0.44-1.78c0.29-0.53,0.7-0.99,1.24-1.37c0.53-0.38,1.17-0.68,1.9-0.9
			c0.73-0.22,1.54-0.33,2.41-0.33c0.69,0,1.39,0.06,2.09,0.19c0.71,0.13,1.33,0.3,1.88,0.52v-1.14c0-1.16-0.33-2.07-0.98-2.73
			c-0.65-0.66-1.58-0.99-2.77-0.99c-1.43,0-2.94,0.55-4.51,1.66l-0.79-1.55c1.83-1.23,3.67-1.85,5.52-1.85c1.87,0,3.32,0.5,4.36,1.5
			c1.04,1,1.56,2.4,1.56,4.21v5.79c0,0.56,0.25,0.85,0.76,0.87v2.07c-0.25,0.04-0.46,0.06-0.63,0.08c-0.16,0.02-0.34,0.03-0.52,0.03
			c-0.47,0-0.85-0.14-1.13-0.42c-0.28-0.28-0.45-0.62-0.5-1.02l-0.05-1.01c-0.63,0.85-1.44,1.5-2.41,1.94
			C67.3,36.66,66.27,36.88,65.16,36.88z M65.79,35.08c0.85,0,1.65-0.16,2.38-0.48c0.73-0.32,1.29-0.74,1.67-1.26
			c0.34-0.34,0.52-0.7,0.52-1.06v-2.09c-1.16-0.45-2.36-0.68-3.62-0.68c-1.2,0-2.17,0.25-2.92,0.76c-0.75,0.51-1.13,1.17-1.13,1.99
			c0,0.4,0.08,0.77,0.23,1.11c0.15,0.34,0.37,0.64,0.65,0.9c0.28,0.25,0.61,0.45,0.99,0.6C64.94,35.01,65.35,35.08,65.79,35.08z"/>
		<path class="st1" d="M84.08,24.51c-1.2,0.04-2.25,0.34-3.17,0.92c-0.92,0.58-1.56,1.39-1.94,2.42v8.75h-2.39V22.42h2.23v3.29
			c0.49-0.98,1.13-1.77,1.93-2.38c0.8-0.61,1.65-0.95,2.56-1.02c0.18,0,0.34,0,0.46,0s0.24,0.01,0.33,0.03V24.51z"/>
		<path class="st1" d="M92.4,36.88c-1.07,0-2.05-0.2-2.94-0.58c-0.89-0.39-1.65-0.92-2.28-1.59c-0.63-0.67-1.13-1.45-1.48-2.35
			c-0.35-0.9-0.53-1.84-0.53-2.84c0-1,0.18-1.94,0.53-2.83c0.35-0.89,0.85-1.67,1.5-2.34c0.64-0.67,1.41-1.2,2.3-1.59
			c0.89-0.39,1.87-0.59,2.94-0.59c1.07,0,2.04,0.2,2.92,0.6c0.88,0.4,1.63,0.93,2.24,1.59c0.62,0.66,1.09,1.43,1.43,2.31
			c0.34,0.88,0.5,1.79,0.5,2.73c0,0.2,0,0.38-0.01,0.54c-0.01,0.16-0.02,0.29-0.04,0.38H87.7c0.05,0.71,0.22,1.35,0.49,1.93
			c0.27,0.58,0.63,1.08,1.06,1.5c0.44,0.42,0.93,0.74,1.48,0.98c0.55,0.24,1.14,0.35,1.75,0.35c0.44,0,0.86-0.06,1.28-0.18
			s0.81-0.28,1.17-0.48c0.36-0.2,0.68-0.44,0.97-0.73c0.28-0.29,0.49-0.62,0.64-0.98l2.07,0.57c-0.24,0.53-0.56,1.01-0.97,1.44
			c-0.41,0.43-0.88,0.81-1.41,1.13c-0.54,0.32-1.13,0.57-1.78,0.75C93.79,36.79,93.11,36.88,92.4,36.88z M97.27,28.56
			c-0.05-0.67-0.22-1.29-0.5-1.86c-0.28-0.57-0.63-1.06-1.06-1.45c-0.43-0.4-0.92-0.71-1.48-0.94s-1.16-0.34-1.79-0.34
			c-0.63,0-1.23,0.11-1.79,0.34c-0.56,0.23-1.06,0.54-1.48,0.95c-0.43,0.41-0.77,0.89-1.03,1.45c-0.26,0.56-0.42,1.18-0.48,1.85
			H97.27z"/>
		<path class="st1" d="M102.43,36.61v-19.3h8.05c0.85,0,1.64,0.18,2.35,0.53c0.72,0.35,1.33,0.82,1.85,1.41
			c0.52,0.59,0.92,1.25,1.21,1.98c0.29,0.73,0.43,1.48,0.43,2.24c0,0.8-0.14,1.57-0.41,2.31c-0.27,0.74-0.66,1.4-1.16,1.99
			c-0.5,0.58-1.1,1.04-1.79,1.39c-0.7,0.34-1.47,0.52-2.32,0.52h-5.76v6.93H102.43z M104.88,27.5h5.63c0.51,0,0.97-0.11,1.37-0.31
			c0.41-0.21,0.76-0.5,1.05-0.87c0.29-0.37,0.52-0.8,0.68-1.29c0.16-0.49,0.24-1.01,0.24-1.55c0-0.56-0.1-1.09-0.29-1.58
			c-0.19-0.49-0.44-0.91-0.76-1.28c-0.32-0.36-0.69-0.64-1.11-0.84c-0.43-0.2-0.87-0.3-1.35-0.3h-5.46V27.5z"/>
		<path class="st1" d="M126.49,24.51c-1.2,0.04-2.25,0.34-3.17,0.92c-0.92,0.58-1.56,1.39-1.94,2.42v8.75h-2.39V22.42h2.23v3.29
			c0.49-0.98,1.13-1.77,1.93-2.38c0.8-0.61,1.65-0.95,2.56-1.02c0.18,0,0.34,0,0.46,0s0.24,0.01,0.33,0.03V24.51z"/>
		<path class="st1" d="M134.73,36.88c-1.07,0-2.04-0.2-2.92-0.6c-0.88-0.4-1.63-0.93-2.26-1.6c-0.62-0.67-1.11-1.45-1.45-2.34
			c-0.34-0.89-0.52-1.82-0.52-2.8c0-1,0.18-1.94,0.53-2.83c0.35-0.89,0.84-1.67,1.47-2.34c0.63-0.67,1.38-1.21,2.26-1.6
			s1.84-0.6,2.9-0.6c1.05,0,2.02,0.2,2.91,0.6s1.65,0.93,2.27,1.6c0.63,0.67,1.11,1.45,1.47,2.34c0.35,0.89,0.53,1.83,0.53,2.83
			c0,0.98-0.17,1.91-0.52,2.8c-0.34,0.89-0.83,1.67-1.47,2.34c-0.63,0.67-1.39,1.21-2.27,1.6C136.77,36.68,135.8,36.88,134.73,36.88
			z M130.03,29.57c0,0.74,0.12,1.43,0.37,2.07c0.24,0.63,0.58,1.19,1.01,1.66c0.43,0.47,0.92,0.84,1.49,1.11
			c0.57,0.27,1.18,0.41,1.84,0.41c0.65,0,1.26-0.14,1.83-0.41c0.57-0.27,1.07-0.65,1.51-1.13c0.44-0.48,0.77-1.04,1.02-1.68
			s0.37-1.34,0.37-2.08c0-0.72-0.12-1.41-0.37-2.05s-0.58-1.21-1.02-1.69c-0.44-0.48-0.94-0.86-1.51-1.13
			c-0.57-0.27-1.18-0.41-1.83-0.41c-0.65,0-1.26,0.14-1.84,0.42c-0.57,0.28-1.07,0.66-1.49,1.14c-0.43,0.48-0.76,1.04-1.01,1.68
			C130.15,28.13,130.03,28.82,130.03,29.57z"/>
		<path class="st1" d="M150.47,36.77c-0.96,0-1.84-0.2-2.65-0.6c-0.81-0.4-1.5-0.93-2.08-1.6c-0.58-0.67-1.03-1.44-1.35-2.31
			c-0.32-0.87-0.48-1.78-0.48-2.72c0-1,0.16-1.94,0.48-2.84c0.32-0.9,0.77-1.68,1.35-2.35c0.58-0.67,1.27-1.2,2.08-1.59
			c0.81-0.39,1.7-0.59,2.68-0.59c1.2,0,2.23,0.29,3.1,0.87c0.87,0.58,1.6,1.31,2.2,2.2v-2.83h2.12v14.03c0,1.01-0.19,1.91-0.57,2.68
			c-0.38,0.77-0.9,1.42-1.55,1.94c-0.65,0.53-1.42,0.92-2.3,1.2c-0.88,0.27-1.82,0.41-2.81,0.41c-1.61,0-2.92-0.28-3.93-0.83
			c-1.01-0.55-1.84-1.32-2.52-2.3l1.39-1.22c0.56,0.83,1.29,1.46,2.17,1.88c0.89,0.42,1.85,0.62,2.88,0.62
			c0.65,0,1.27-0.09,1.86-0.27c0.59-0.18,1.1-0.45,1.54-0.82c0.43-0.36,0.78-0.82,1.05-1.36c0.26-0.54,0.39-1.19,0.39-1.93v-2.5
			c-0.27,0.43-0.59,0.83-0.97,1.18c-0.37,0.35-0.78,0.65-1.21,0.9c-0.44,0.24-0.9,0.43-1.39,0.56
			C151.47,36.71,150.98,36.77,150.47,36.77z M151.2,34.81c0.51,0,1-0.09,1.47-0.27c0.47-0.18,0.91-0.42,1.3-0.72
			c0.4-0.3,0.73-0.64,1.01-1.02c0.27-0.38,0.45-0.77,0.54-1.17v-4.08c-0.2-0.49-0.46-0.93-0.78-1.33c-0.32-0.4-0.67-0.75-1.07-1.05
			c-0.4-0.3-0.83-0.53-1.29-0.69c-0.46-0.16-0.93-0.24-1.4-0.24c-0.72,0-1.37,0.15-1.94,0.46c-0.57,0.31-1.06,0.72-1.45,1.22
			c-0.4,0.51-0.71,1.08-0.92,1.73c-0.22,0.64-0.33,1.29-0.33,1.94c0,0.71,0.13,1.38,0.38,2.01c0.25,0.63,0.6,1.19,1.03,1.66
			c0.44,0.47,0.95,0.85,1.54,1.13C149.88,34.67,150.51,34.81,151.2,34.81z"/>
		<path class="st1" d="M169.28,24.51c-1.2,0.04-2.25,0.34-3.17,0.92c-0.92,0.58-1.56,1.39-1.94,2.42v8.75h-2.39V22.42h2.23v3.29
			c0.49-0.98,1.13-1.77,1.93-2.38c0.8-0.61,1.65-0.95,2.56-1.02c0.18,0,0.34,0,0.46,0c0.13,0,0.24,0.01,0.33,0.03V24.51z"/>
		<path class="st1" d="M177.6,36.88c-1.07,0-2.05-0.2-2.94-0.58c-0.89-0.39-1.65-0.92-2.28-1.59c-0.63-0.67-1.13-1.45-1.48-2.35
			c-0.35-0.9-0.53-1.84-0.53-2.84c0-1,0.18-1.94,0.53-2.83c0.35-0.89,0.85-1.67,1.5-2.34c0.64-0.67,1.41-1.2,2.3-1.59
			c0.89-0.39,1.87-0.59,2.94-0.59s2.04,0.2,2.92,0.6c0.88,0.4,1.63,0.93,2.24,1.59c0.62,0.66,1.09,1.43,1.43,2.31
			c0.34,0.88,0.5,1.79,0.5,2.73c0,0.2,0,0.38-0.01,0.54s-0.02,0.29-0.04,0.38H172.9c0.05,0.71,0.22,1.35,0.49,1.93
			c0.27,0.58,0.63,1.08,1.06,1.5c0.44,0.42,0.93,0.74,1.48,0.98c0.55,0.24,1.14,0.35,1.75,0.35c0.44,0,0.86-0.06,1.28-0.18
			c0.42-0.12,0.81-0.28,1.17-0.48c0.36-0.2,0.68-0.44,0.97-0.73c0.28-0.29,0.49-0.62,0.64-0.98l2.07,0.57
			c-0.24,0.53-0.56,1.01-0.97,1.44s-0.88,0.81-1.41,1.13c-0.54,0.32-1.13,0.57-1.78,0.75C178.99,36.79,178.31,36.88,177.6,36.88z
			 M182.47,28.56c-0.05-0.67-0.22-1.29-0.5-1.86c-0.28-0.57-0.63-1.06-1.06-1.45c-0.43-0.4-0.92-0.71-1.48-0.94
			c-0.56-0.23-1.16-0.34-1.79-0.34s-1.23,0.11-1.79,0.34s-1.06,0.54-1.48,0.95c-0.43,0.41-0.77,0.89-1.03,1.45
			c-0.26,0.56-0.42,1.18-0.48,1.85H182.47z"/>
		<path class="st1" d="M192.36,36.88c-1.14,0-2.27-0.18-3.37-0.53c-1.11-0.35-2.06-0.87-2.85-1.54l1.03-1.6
			c0.83,0.63,1.67,1.11,2.5,1.43c0.83,0.32,1.71,0.48,2.64,0.48c1.03,0,1.85-0.2,2.46-0.61c0.61-0.41,0.91-0.98,0.91-1.73
			c0-0.34-0.08-0.64-0.24-0.88c-0.16-0.24-0.41-0.46-0.73-0.64c-0.33-0.18-0.74-0.34-1.25-0.49c-0.51-0.14-1.1-0.3-1.77-0.46
			c-0.85-0.22-1.59-0.43-2.2-0.62c-0.62-0.2-1.12-0.43-1.52-0.71c-0.4-0.27-0.69-0.6-0.87-0.98c-0.18-0.38-0.27-0.85-0.27-1.41
			c0-0.71,0.14-1.34,0.42-1.89c0.28-0.55,0.67-1.01,1.16-1.39c0.49-0.37,1.06-0.65,1.73-0.84c0.66-0.19,1.37-0.29,2.13-0.29
			c1.07,0,2.07,0.17,2.99,0.52c0.92,0.34,1.7,0.8,2.34,1.36l-1.09,1.44c-0.6-0.53-1.27-0.92-2.01-1.18
			c-0.74-0.26-1.5-0.39-2.28-0.39c-0.87,0-1.61,0.19-2.22,0.56c-0.61,0.37-0.91,0.97-0.91,1.78c0,0.33,0.06,0.6,0.18,0.82
			c0.12,0.22,0.31,0.41,0.58,0.57s0.62,0.31,1.05,0.43c0.43,0.13,0.94,0.26,1.54,0.41c0.94,0.22,1.76,0.44,2.46,0.67
			c0.7,0.23,1.28,0.49,1.74,0.8c0.46,0.31,0.81,0.67,1.03,1.09c0.23,0.42,0.34,0.92,0.34,1.52c0,1.32-0.51,2.37-1.52,3.15
			C195.45,36.49,194.08,36.88,192.36,36.88z"/>
		<path class="st1" d="M205.79,36.88c-1.14,0-2.27-0.18-3.37-0.53s-2.06-0.87-2.85-1.54l1.03-1.6c0.83,0.63,1.67,1.11,2.5,1.43
			c0.83,0.32,1.71,0.48,2.64,0.48c1.03,0,1.85-0.2,2.46-0.61c0.61-0.41,0.91-0.98,0.91-1.73c0-0.34-0.08-0.64-0.24-0.88
			c-0.16-0.24-0.41-0.46-0.73-0.64c-0.33-0.18-0.74-0.34-1.25-0.49c-0.51-0.14-1.1-0.3-1.77-0.46c-0.85-0.22-1.59-0.43-2.2-0.62
			c-0.62-0.2-1.12-0.43-1.52-0.71c-0.4-0.27-0.69-0.6-0.87-0.98c-0.18-0.38-0.27-0.85-0.27-1.41c0-0.71,0.14-1.34,0.42-1.89
			c0.28-0.55,0.67-1.01,1.16-1.39c0.49-0.37,1.06-0.65,1.73-0.84c0.66-0.19,1.37-0.29,2.13-0.29c1.07,0,2.07,0.17,2.99,0.52
			c0.92,0.34,1.7,0.8,2.34,1.36l-1.09,1.44c-0.6-0.53-1.27-0.92-2.01-1.18c-0.74-0.26-1.5-0.39-2.28-0.39
			c-0.87,0-1.61,0.19-2.22,0.56c-0.61,0.37-0.91,0.97-0.91,1.78c0,0.33,0.06,0.6,0.18,0.82c0.12,0.22,0.31,0.41,0.58,0.57
			c0.27,0.16,0.62,0.31,1.05,0.43c0.43,0.13,0.94,0.26,1.54,0.41c0.94,0.22,1.76,0.44,2.46,0.67c0.7,0.23,1.28,0.49,1.74,0.8
			c0.46,0.31,0.81,0.67,1.03,1.09c0.23,0.42,0.34,0.92,0.34,1.52c0,1.32-0.51,2.37-1.52,3.15
			C208.88,36.49,207.51,36.88,205.79,36.88z"/>
		<path class="st1" d="M228.41,36.88c-1.11,0-2.11-0.27-3.02-0.82c-0.91-0.54-1.62-1.25-2.15-2.12v2.66h-2.12V16.76h2.39v8.48
			c0.6-0.92,1.33-1.67,2.2-2.23c0.87-0.56,1.88-0.84,3.04-0.84c0.98,0,1.86,0.21,2.64,0.63c0.78,0.42,1.44,0.97,2,1.64
			c0.55,0.68,0.98,1.47,1.28,2.37c0.3,0.9,0.45,1.82,0.45,2.76c0,1-0.17,1.94-0.52,2.83c-0.34,0.89-0.82,1.66-1.41,2.33
			c-0.6,0.66-1.31,1.19-2.13,1.58C230.23,36.68,229.35,36.88,228.41,36.88z M227.81,34.81c0.71,0,1.36-0.14,1.96-0.43
			c0.6-0.29,1.11-0.68,1.55-1.17c0.43-0.49,0.77-1.05,1.01-1.67c0.24-0.62,0.35-1.28,0.35-1.97c0-0.69-0.11-1.35-0.34-2
			c-0.23-0.64-0.54-1.21-0.95-1.7c-0.41-0.49-0.9-0.88-1.47-1.18c-0.57-0.3-1.2-0.45-1.89-0.45c-0.51,0-0.99,0.09-1.44,0.27
			c-0.45,0.18-0.87,0.42-1.26,0.72c-0.39,0.3-0.73,0.65-1.03,1.05c-0.3,0.4-0.56,0.82-0.77,1.28v4.1c0.09,0.45,0.29,0.87,0.58,1.25
			c0.3,0.38,0.65,0.71,1.06,0.99c0.41,0.28,0.84,0.5,1.31,0.67C226.93,34.73,227.37,34.81,227.81,34.81z"/>
		<path class="st1" d="M238.22,40.47c0.24,0.04,0.47,0.06,0.71,0.08c0.24,0.02,0.42,0.03,0.54,0.03c0.22,0,0.41-0.05,0.58-0.15
			c0.17-0.1,0.34-0.3,0.52-0.58c0.17-0.29,0.37-0.69,0.58-1.21c0.22-0.52,0.49-1.19,0.82-2.02l-6.01-14.19h2.47l4.84,12.04
			l4.4-12.04h2.28l-6.9,17.91c-0.25,0.63-0.68,1.19-1.26,1.67c-0.59,0.48-1.4,0.72-2.43,0.72c-0.16,0-0.33-0.01-0.5-0.03
			c-0.17-0.02-0.39-0.06-0.64-0.11V40.47z"/>
	</g>
</g>
</svg>
