<?xml version="1.0" encoding="utf-8"?>
<!-- Generator: Adobe Illustrator 25.2.3, SVG Export Plug-In . SVG Version: 6.00 Build 0)  -->
<svg version="1.1" id="Layer_1" xmlns="http://www.w3.org/2000/svg" xmlns:xlink="http://www.w3.org/1999/xlink" x="0px" y="0px"
	 viewBox="0 0 240.5 27" style="enable-background:new 0 0 240.5 27;" xml:space="preserve">
<style type="text/css">
	.st0{fill:#67C3A5;}
	.st1{fill:#333333;}
</style>
<g>
	<g>
		<path class="st0" d="M126.8,0.01v26.98h-1.5V0.01L126.8,0.01z"/>
		<path class="st0" d="M240.5,0.01v26.98H239V0.01L240.5,0.01z"/>
		<path class="st1" d="M136.49,9.47c-0.89,0.97-1.91,1.46-3.07,1.46c-0.65,0-1.24-0.14-1.79-0.41c-0.54-0.28-1.01-0.64-1.42-1.1
			c-0.4-0.45-0.71-0.97-0.93-1.54c-0.22-0.58-0.34-1.17-0.34-1.78c0-0.63,0.11-1.24,0.32-1.82c0.22-0.58,0.53-1.09,0.93-1.53
			c0.4-0.45,0.86-0.8,1.4-1.06c0.54-0.27,1.13-0.4,1.77-0.4c0.47,0,0.89,0.05,1.28,0.16c0.39,0.1,0.73,0.24,1.02,0.43
			c0.31,0.18,0.57,0.4,0.78,0.66c0.22,0.25,0.41,0.53,0.57,0.83l-0.73,0.48c-0.31-0.59-0.72-1.02-1.23-1.3
			c-0.5-0.28-1.07-0.41-1.71-0.41c-0.53,0-1.01,0.11-1.44,0.33c-0.42,0.22-0.79,0.52-1.09,0.9c-0.3,0.37-0.53,0.79-0.69,1.27
			c-0.16,0.47-0.24,0.96-0.24,1.47c0,0.54,0.09,1.04,0.27,1.53c0.19,0.48,0.44,0.91,0.77,1.27c0.32,0.36,0.7,0.64,1.13,0.86
			c0.44,0.21,0.92,0.32,1.43,0.32c0.55,0,1.07-0.12,1.56-0.37c0.5-0.26,0.98-0.66,1.44-1.22V6.92h-2.13V6.19h2.93v4.67h-0.8V9.47z"
			/>
		<path class="st1" d="M139.23,10.86v-9.5h0.94v8.67h5.53v0.83H139.23z"/>
		<path class="st1" d="M150.34,10.93c-0.67,0-1.28-0.13-1.83-0.4c-0.55-0.28-1.02-0.64-1.42-1.08c-0.4-0.45-0.7-0.97-0.92-1.55
			c-0.22-0.58-0.32-1.17-0.32-1.78c0-0.63,0.11-1.24,0.34-1.82c0.23-0.58,0.55-1.09,0.96-1.54c0.4-0.45,0.88-0.8,1.43-1.06
			c0.55-0.27,1.14-0.4,1.78-0.4c0.67,0,1.27,0.14,1.82,0.43c0.56,0.28,1.03,0.64,1.42,1.1c0.4,0.46,0.7,0.97,0.92,1.55
			c0.22,0.57,0.32,1.16,0.32,1.75c0,0.63-0.12,1.24-0.35,1.82c-0.22,0.58-0.54,1.09-0.94,1.54c-0.4,0.44-0.87,0.79-1.42,1.06
			C151.57,10.8,150.98,10.93,150.34,10.93z M146.79,6.11c0,0.52,0.09,1.02,0.26,1.5c0.17,0.47,0.41,0.9,0.73,1.27
			c0.31,0.37,0.69,0.66,1.12,0.88c0.43,0.21,0.91,0.32,1.44,0.32c0.54,0,1.03-0.12,1.47-0.35c0.44-0.23,0.81-0.54,1.12-0.91
			c0.31-0.37,0.54-0.8,0.7-1.27c0.17-0.47,0.26-0.95,0.26-1.45c0-0.52-0.09-1.01-0.27-1.49c-0.17-0.48-0.41-0.91-0.73-1.27
			c-0.31-0.37-0.69-0.66-1.12-0.87c-0.43-0.22-0.91-0.33-1.43-0.33c-0.54,0-1.03,0.12-1.47,0.35c-0.44,0.22-0.81,0.52-1.12,0.9
			c-0.31,0.37-0.54,0.8-0.71,1.27C146.88,5.14,146.79,5.62,146.79,6.11z"/>
		<path class="st1" d="M163.81,8.41c0,0.36-0.07,0.69-0.22,0.99c-0.14,0.29-0.34,0.55-0.58,0.78c-0.24,0.21-0.53,0.38-0.85,0.51
			c-0.32,0.12-0.67,0.17-1.04,0.17h-4.52v-9.5h4.61c0.33,0,0.63,0.07,0.9,0.21c0.27,0.14,0.5,0.33,0.69,0.56
			c0.19,0.22,0.33,0.48,0.43,0.78c0.11,0.29,0.16,0.58,0.16,0.87c0,0.48-0.12,0.92-0.36,1.32c-0.24,0.39-0.58,0.69-1.01,0.88
			c0.55,0.16,0.98,0.46,1.29,0.9C163.65,7.33,163.81,7.83,163.81,8.41z M162.87,8.25c0-0.23-0.04-0.46-0.12-0.67
			c-0.08-0.22-0.2-0.41-0.35-0.58c-0.14-0.17-0.32-0.3-0.53-0.4c-0.2-0.11-0.41-0.16-0.65-0.16h-3.67v3.6h3.57
			c0.24,0,0.47-0.05,0.67-0.15c0.22-0.1,0.4-0.23,0.55-0.39c0.16-0.17,0.29-0.36,0.38-0.58C162.82,8.71,162.87,8.49,162.87,8.25z
			 M157.55,2.18v3.51h3.29c0.23,0,0.45-0.05,0.65-0.15c0.21-0.1,0.38-0.23,0.53-0.39c0.14-0.16,0.26-0.34,0.34-0.55
			c0.08-0.21,0.12-0.44,0.12-0.67c0-0.24-0.04-0.47-0.12-0.68c-0.07-0.21-0.18-0.4-0.32-0.55c-0.13-0.16-0.3-0.29-0.49-0.37
			c-0.19-0.1-0.4-0.15-0.62-0.15H157.55z"/>
		<path class="st1" d="M168.36,1.36h0.8l3.98,9.5h-1l-1.24-2.97h-4.3l-1.23,2.97h-1.01L168.36,1.36z M170.68,7.16l-1.93-4.7
			l-1.95,4.7H170.68z"/>
		<path class="st1" d="M174.5,10.86v-9.5h0.94v8.67h5.53v0.83H174.5z"/>
		<path class="st1" d="M129.59,25.85v-9.5h6.27v0.83h-5.33v3.49h4.5v0.78h-4.5v4.4H129.59z"/>
		<path class="st1" d="M141.15,25.92c-0.66,0-1.27-0.13-1.83-0.4c-0.55-0.28-1.02-0.64-1.41-1.08c-0.39-0.46-0.7-0.97-0.92-1.55
			c-0.22-0.58-0.32-1.17-0.32-1.78c0-0.63,0.11-1.24,0.34-1.82c0.23-0.58,0.55-1.09,0.96-1.54c0.4-0.45,0.88-0.8,1.43-1.06
			c0.55-0.27,1.14-0.4,1.78-0.4c0.66,0,1.27,0.14,1.82,0.43c0.56,0.28,1.03,0.64,1.41,1.1c0.39,0.45,0.7,0.97,0.92,1.55
			c0.22,0.57,0.32,1.16,0.32,1.75c0,0.63-0.12,1.24-0.35,1.82c-0.22,0.58-0.54,1.09-0.94,1.54c-0.39,0.44-0.87,0.79-1.41,1.06
			C142.38,25.79,141.79,25.92,141.15,25.92z M137.61,21.1c0,0.52,0.09,1.02,0.26,1.5c0.17,0.47,0.41,0.9,0.73,1.27
			c0.31,0.37,0.69,0.66,1.12,0.88c0.43,0.21,0.91,0.32,1.44,0.32c0.54,0,1.03-0.12,1.47-0.35c0.44-0.23,0.81-0.54,1.12-0.91
			c0.31-0.37,0.54-0.8,0.7-1.27c0.17-0.47,0.26-0.95,0.26-1.45c0-0.52-0.09-1.01-0.27-1.49c-0.17-0.48-0.41-0.91-0.73-1.27
			c-0.31-0.37-0.69-0.66-1.12-0.87c-0.43-0.22-0.91-0.33-1.43-0.33c-0.54,0-1.03,0.12-1.47,0.35c-0.44,0.22-0.81,0.52-1.12,0.9
			c-0.31,0.37-0.54,0.8-0.71,1.27C137.69,20.13,137.61,20.61,137.61,21.1z"/>
		<path class="st1" d="M151.26,25.92c-0.66,0-1.27-0.13-1.83-0.4c-0.55-0.28-1.02-0.64-1.41-1.08c-0.39-0.46-0.7-0.97-0.92-1.55
			c-0.22-0.58-0.32-1.17-0.32-1.78c0-0.63,0.11-1.24,0.34-1.82c0.23-0.58,0.55-1.09,0.96-1.54c0.4-0.45,0.88-0.8,1.43-1.06
			c0.55-0.27,1.14-0.4,1.78-0.4c0.66,0,1.27,0.14,1.82,0.43c0.56,0.28,1.03,0.64,1.41,1.1c0.39,0.45,0.7,0.97,0.92,1.55
			c0.22,0.57,0.32,1.16,0.32,1.75c0,0.63-0.12,1.24-0.35,1.82c-0.22,0.58-0.54,1.09-0.94,1.54c-0.39,0.44-0.87,0.79-1.41,1.06
			C152.49,25.79,151.9,25.92,151.26,25.92z M147.72,21.1c0,0.52,0.09,1.02,0.26,1.5c0.17,0.47,0.41,0.9,0.73,1.27
			c0.31,0.37,0.69,0.66,1.12,0.88c0.43,0.21,0.91,0.32,1.44,0.32c0.54,0,1.03-0.12,1.47-0.35s0.81-0.54,1.12-0.91
			c0.31-0.37,0.54-0.8,0.7-1.27c0.17-0.47,0.26-0.95,0.26-1.45c0-0.52-0.09-1.01-0.27-1.49c-0.17-0.48-0.41-0.91-0.73-1.27
			c-0.31-0.37-0.69-0.66-1.12-0.87c-0.43-0.22-0.91-0.33-1.43-0.33c-0.54,0-1.03,0.12-1.47,0.35c-0.44,0.22-0.81,0.52-1.12,0.9
			c-0.31,0.37-0.54,0.8-0.71,1.27C147.8,20.13,147.72,20.61,147.72,21.1z"/>
		<path class="st1" d="M157.52,25.85v-9.5h3.24c0.76,0,1.43,0.12,1.99,0.37c0.57,0.25,1.05,0.59,1.43,1.02
			c0.39,0.43,0.67,0.93,0.86,1.51c0.2,0.57,0.3,1.18,0.3,1.83c0,0.72-0.11,1.38-0.32,1.97c-0.22,0.58-0.52,1.08-0.93,1.5
			c-0.39,0.41-0.88,0.73-1.44,0.96c-0.56,0.22-1.18,0.33-1.88,0.33H157.52z M164.4,21.09c0-0.57-0.08-1.09-0.24-1.57
			c-0.16-0.48-0.4-0.9-0.71-1.24c-0.31-0.35-0.68-0.62-1.13-0.8c-0.45-0.2-0.96-0.29-1.55-0.29h-2.3v7.84h2.3
			c0.59,0,1.11-0.1,1.56-0.29c0.46-0.21,0.84-0.48,1.14-0.83c0.31-0.36,0.53-0.77,0.69-1.24C164.32,22.17,164.4,21.65,164.4,21.09z"
			/>
		<path class="st0" d="M168.34,26.02v-9.67h4.06c0.44,0,0.85,0.1,1.21,0.29c0.38,0.18,0.7,0.43,0.97,0.74
			c0.27,0.3,0.48,0.64,0.63,1.04c0.15,0.38,0.23,0.77,0.23,1.16c0,0.41-0.07,0.81-0.22,1.2c-0.14,0.38-0.35,0.72-0.61,1.02
			c-0.26,0.3-0.58,0.54-0.94,0.72c-0.37,0.18-0.77,0.27-1.21,0.27h-2.27v3.24H168.34z M170.2,21.13h2.16c0.34,0,0.63-0.14,0.85-0.42
			c0.23-0.28,0.35-0.66,0.35-1.14c0-0.25-0.04-0.46-0.11-0.65c-0.07-0.2-0.17-0.37-0.28-0.5c-0.12-0.14-0.26-0.24-0.42-0.3
			c-0.15-0.07-0.31-0.11-0.47-0.11h-2.08V21.13z"/>
		<path class="st0" d="M178.87,16.35h1.65l3.64,9.67h-1.92l-0.89-2.41h-3.35l-0.88,2.41h-1.92L178.87,16.35z M181.02,22.29
			l-1.32-3.8l-1.38,3.8H181.02z"/>
		<path class="st0" d="M185.21,26.02v-9.67h4.24c0.44,0,0.85,0.1,1.21,0.29c0.38,0.18,0.7,0.43,0.97,0.74
			c0.27,0.3,0.48,0.64,0.63,1.04c0.15,0.38,0.23,0.77,0.23,1.16c0,0.63-0.16,1.2-0.47,1.72c-0.31,0.51-0.72,0.88-1.26,1.1l2.19,3.64
			h-2.09l-1.96-3.24h-1.84v3.24H185.21z M187.08,21.13h2.34c0.17,0,0.33-0.04,0.47-0.12c0.15-0.08,0.28-0.19,0.39-0.33
			c0.11-0.15,0.19-0.31,0.26-0.5c0.06-0.19,0.09-0.4,0.09-0.61c0-0.23-0.04-0.44-0.11-0.63c-0.07-0.19-0.17-0.35-0.3-0.49
			c-0.12-0.15-0.26-0.25-0.42-0.33c-0.15-0.08-0.31-0.12-0.47-0.12h-2.25V21.13z"/>
		<path class="st0" d="M201.21,18h-3.06v8.02h-1.85V18h-3.06v-1.65h7.98V18z"/>
		<path class="st0" d="M204.26,19.83v6.2h-1.86v-9.67h1.44l4.99,6.35v-6.33h1.86v9.66h-1.51L204.26,19.83z"/>
		<path class="st0" d="M219.35,24.38v1.65h-6.65v-9.67h6.53V18h-4.67v2.33h4.04v1.53h-4.04v2.52H219.35z"/>
		<path class="st0" d="M220.8,26.02v-9.67h4.24c0.44,0,0.85,0.1,1.21,0.29c0.38,0.18,0.7,0.43,0.97,0.74
			c0.27,0.3,0.48,0.64,0.63,1.04c0.15,0.38,0.23,0.77,0.23,1.16c0,0.63-0.16,1.2-0.47,1.72c-0.31,0.51-0.72,0.88-1.26,1.1l2.19,3.64
			h-2.09l-1.96-3.24h-1.84v3.24H220.8z M222.66,21.13H225c0.17,0,0.33-0.04,0.47-0.12c0.15-0.08,0.28-0.19,0.39-0.33
			c0.11-0.15,0.19-0.31,0.26-0.5c0.06-0.19,0.09-0.4,0.09-0.61c0-0.23-0.04-0.44-0.11-0.63c-0.07-0.19-0.17-0.35-0.3-0.49
			c-0.12-0.15-0.26-0.25-0.42-0.33c-0.15-0.08-0.31-0.12-0.47-0.12h-2.25V21.13z"/>
		<path class="st0" d="M235.49,18.89c-0.06-0.06-0.18-0.15-0.35-0.26c-0.16-0.11-0.36-0.21-0.61-0.31c-0.23-0.11-0.49-0.2-0.77-0.27
			c-0.28-0.07-0.56-0.11-0.85-0.11c-0.51,0-0.9,0.1-1.15,0.29c-0.25,0.19-0.38,0.46-0.38,0.8c0,0.2,0.04,0.37,0.14,0.5
			c0.1,0.13,0.24,0.24,0.42,0.34s0.4,0.19,0.67,0.27c0.28,0.08,0.6,0.17,0.96,0.26c0.47,0.13,0.89,0.26,1.27,0.41
			c0.39,0.15,0.71,0.33,0.97,0.54c0.27,0.22,0.48,0.48,0.62,0.79c0.14,0.3,0.22,0.67,0.22,1.12c0,0.52-0.1,0.96-0.3,1.34
			c-0.19,0.36-0.45,0.66-0.78,0.89c-0.32,0.23-0.7,0.39-1.13,0.5c-0.42,0.1-0.87,0.15-1.34,0.15c-0.72,0-1.43-0.11-2.13-0.33
			c-0.7-0.22-1.33-0.53-1.89-0.93l0.82-1.62c0.08,0.08,0.22,0.19,0.43,0.33c0.22,0.13,0.47,0.26,0.76,0.39
			c0.29,0.13,0.61,0.24,0.96,0.33c0.35,0.09,0.71,0.14,1.08,0.14c1.03,0,1.54-0.33,1.54-0.99c0-0.21-0.06-0.39-0.18-0.53
			c-0.12-0.15-0.28-0.27-0.5-0.38c-0.22-0.11-0.48-0.21-0.78-0.3c-0.31-0.09-0.65-0.19-1.03-0.3c-0.46-0.13-0.86-0.26-1.2-0.41
			c-0.33-0.15-0.61-0.33-0.84-0.53c-0.22-0.21-0.4-0.45-0.51-0.71c-0.11-0.27-0.16-0.59-0.16-0.97c0-0.49,0.09-0.93,0.27-1.31
			c0.18-0.38,0.43-0.7,0.74-0.95c0.32-0.25,0.7-0.45,1.12-0.57c0.42-0.14,0.88-0.2,1.36-0.2c0.67,0,1.3,0.11,1.86,0.33
			c0.57,0.21,1.06,0.46,1.48,0.75L235.49,18.89z"/>
	</g>
	<g>
		<path class="st1" d="M4.39,8.39H5.5l1.23,3.23l1.24-3.23h1.11l-1.61,4.04l1.6,3.83l3.14-7.92h1.28l-3.88,9.28H8.59l-1.84-4.38
			l-1.86,4.38H3.87L0,8.33h1.27l3.15,7.92L6,12.43L4.39,8.39z"/>
		<path class="st1" d="M16.66,17.75c-0.51,0-0.99-0.09-1.41-0.28c-0.43-0.19-0.79-0.44-1.1-0.77c-0.31-0.32-0.54-0.7-0.71-1.13
			c-0.17-0.43-0.25-0.89-0.25-1.37s0.08-0.93,0.25-1.36c0.17-0.43,0.41-0.8,0.72-1.12c0.31-0.32,0.68-0.58,1.1-0.76
			c0.43-0.19,0.9-0.28,1.41-0.28s0.98,0.1,1.41,0.29c0.42,0.19,0.78,0.45,1.08,0.76c0.3,0.32,0.53,0.69,0.69,1.11
			c0.16,0.42,0.24,0.86,0.24,1.31c0,0.1,0,0.18-0.01,0.26c0,0.08-0.01,0.14-0.02,0.18H14.4c0.03,0.34,0.1,0.65,0.24,0.93
			c0.13,0.28,0.3,0.52,0.51,0.72c0.21,0.2,0.45,0.36,0.71,0.47c0.27,0.11,0.55,0.17,0.84,0.17c0.21,0,0.41-0.03,0.61-0.08
			c0.2-0.06,0.39-0.13,0.56-0.23c0.17-0.1,0.33-0.21,0.46-0.35c0.14-0.14,0.24-0.3,0.31-0.47l0.99,0.27
			c-0.11,0.25-0.27,0.48-0.46,0.69c-0.2,0.21-0.42,0.39-0.68,0.54c-0.26,0.15-0.54,0.27-0.86,0.36C17.33,17.71,17,17.75,16.66,17.75
			z M19,13.75c-0.03-0.32-0.11-0.62-0.24-0.9s-0.31-0.51-0.51-0.7c-0.2-0.19-0.44-0.34-0.71-0.45c-0.27-0.11-0.56-0.16-0.86-0.16
			s-0.59,0.05-0.86,0.16c-0.27,0.11-0.51,0.26-0.71,0.46c-0.2,0.2-0.37,0.43-0.5,0.7c-0.13,0.27-0.2,0.57-0.23,0.89H19z"/>
		<path class="st1" d="M21.39,8.07h1.15v7.78c0,0.25,0.07,0.45,0.2,0.59c0.14,0.14,0.32,0.22,0.57,0.22c0.1,0,0.21-0.02,0.34-0.05
			s0.25-0.07,0.37-0.11l0.18,0.93c-0.19,0.08-0.42,0.14-0.68,0.2c-0.26,0.05-0.49,0.08-0.69,0.08c-0.44,0-0.8-0.13-1.05-0.38
			c-0.26-0.25-0.39-0.61-0.39-1.06V8.07z"/>
		<path class="st1" d="M25.47,17.62V11.7h-0.93v-0.9h0.93v-0.14c0-0.85,0.19-1.51,0.56-1.99c0.37-0.48,0.88-0.72,1.53-0.72
			c0.27,0,0.54,0.04,0.8,0.11c0.26,0.07,0.5,0.18,0.71,0.31l-0.29,0.85C28.66,9.12,28.51,9.05,28.33,9
			c-0.18-0.05-0.36-0.08-0.53-0.08c-0.38,0-0.68,0.14-0.88,0.43c-0.2,0.29-0.3,0.71-0.3,1.26v0.18h1.82v0.9h-1.82v5.92H25.47z"/>
		<path class="st1" d="M31.34,17.75c-0.32,0-0.62-0.05-0.9-0.16c-0.28-0.11-0.52-0.26-0.73-0.45c-0.2-0.19-0.37-0.42-0.48-0.67
			c-0.12-0.26-0.18-0.54-0.18-0.84c0-0.31,0.07-0.6,0.21-0.86c0.14-0.26,0.34-0.48,0.59-0.66c0.26-0.18,0.56-0.33,0.92-0.43
			c0.35-0.1,0.74-0.16,1.16-0.16c0.33,0,0.67,0.03,1.01,0.09c0.34,0.06,0.64,0.14,0.9,0.25V13.3c0-0.56-0.16-1-0.47-1.31
			c-0.31-0.32-0.76-0.48-1.33-0.48c-0.69,0-1.41,0.27-2.17,0.8l-0.38-0.75c0.88-0.59,1.77-0.89,2.65-0.89c0.9,0,1.6,0.24,2.1,0.72
			c0.5,0.48,0.75,1.16,0.75,2.03v2.79c0,0.27,0.12,0.41,0.37,0.42v0.99c-0.12,0.02-0.22,0.03-0.3,0.04
			c-0.08,0.01-0.16,0.01-0.25,0.01c-0.23,0-0.41-0.07-0.54-0.2c-0.14-0.14-0.22-0.3-0.24-0.49L34,16.49
			c-0.31,0.41-0.69,0.72-1.16,0.94C32.37,17.64,31.87,17.75,31.34,17.75z M31.64,16.89c0.41,0,0.79-0.08,1.14-0.23
			c0.35-0.15,0.62-0.35,0.8-0.61c0.17-0.17,0.25-0.34,0.25-0.51v-1.01c-0.56-0.22-1.14-0.33-1.74-0.33c-0.58,0-1.04,0.12-1.41,0.37
			c-0.36,0.24-0.54,0.56-0.54,0.95c0,0.19,0.04,0.37,0.11,0.54c0.07,0.17,0.18,0.31,0.31,0.43c0.13,0.12,0.29,0.22,0.48,0.29
			C31.24,16.85,31.43,16.89,31.64,16.89z"/>
		<path class="st1" d="M40.44,11.8c-0.58,0.02-1.08,0.17-1.52,0.44c-0.44,0.28-0.75,0.67-0.94,1.16v4.21h-1.15v-6.83h1.07v1.58
			c0.24-0.47,0.54-0.85,0.93-1.14c0.38-0.29,0.79-0.46,1.23-0.49c0.09,0,0.16,0,0.22,0s0.11,0,0.16,0.01V11.8z"/>
		<path class="st1" d="M44.44,17.75c-0.51,0-0.99-0.09-1.41-0.28c-0.43-0.19-0.79-0.44-1.1-0.77c-0.31-0.32-0.54-0.7-0.71-1.13
			c-0.17-0.43-0.25-0.89-0.25-1.37s0.08-0.93,0.25-1.36c0.17-0.43,0.41-0.8,0.72-1.12c0.31-0.32,0.68-0.58,1.1-0.76
			c0.43-0.19,0.9-0.28,1.41-0.28s0.98,0.1,1.41,0.29c0.42,0.19,0.78,0.45,1.08,0.76c0.3,0.32,0.53,0.69,0.69,1.11
			c0.16,0.42,0.24,0.86,0.24,1.31c0,0.1,0,0.18-0.01,0.26c0,0.08-0.01,0.14-0.02,0.18h-5.66c0.03,0.34,0.1,0.65,0.24,0.93
			c0.13,0.28,0.3,0.52,0.51,0.72c0.21,0.2,0.45,0.36,0.71,0.47c0.27,0.11,0.55,0.17,0.84,0.17c0.21,0,0.41-0.03,0.61-0.08
			s0.39-0.13,0.56-0.23c0.17-0.1,0.33-0.21,0.46-0.35c0.14-0.14,0.24-0.3,0.31-0.47l0.99,0.27c-0.11,0.25-0.27,0.48-0.46,0.69
			s-0.42,0.39-0.68,0.54c-0.26,0.15-0.54,0.27-0.86,0.36C45.11,17.71,44.78,17.75,44.44,17.75z M46.79,13.75
			c-0.03-0.32-0.11-0.62-0.24-0.9s-0.31-0.51-0.51-0.7c-0.2-0.19-0.44-0.34-0.71-0.45c-0.27-0.11-0.56-0.16-0.86-0.16
			c-0.31,0-0.59,0.05-0.86,0.16c-0.27,0.11-0.51,0.26-0.71,0.46c-0.2,0.2-0.37,0.43-0.5,0.7c-0.13,0.27-0.2,0.57-0.23,0.89H46.79z"
			/>
		<path class="st1" d="M49.27,17.62V8.33h3.87c0.41,0,0.79,0.09,1.13,0.26c0.34,0.17,0.64,0.4,0.89,0.68
			c0.25,0.28,0.44,0.6,0.58,0.95c0.14,0.35,0.21,0.71,0.21,1.08c0,0.38-0.07,0.75-0.2,1.11s-0.32,0.68-0.56,0.95
			c-0.24,0.28-0.53,0.5-0.86,0.67s-0.71,0.25-1.12,0.25h-2.77v3.33H49.27z M50.45,13.24h2.71c0.24,0,0.46-0.05,0.66-0.15
			c0.2-0.1,0.36-0.24,0.5-0.42c0.14-0.18,0.25-0.39,0.33-0.62c0.08-0.23,0.12-0.48,0.12-0.75c0-0.27-0.05-0.52-0.14-0.76
			c-0.09-0.23-0.21-0.44-0.37-0.61c-0.15-0.17-0.33-0.31-0.54-0.41c-0.2-0.1-0.42-0.14-0.65-0.14h-2.63V13.24z"/>
		<path class="st1" d="M60.84,11.8c-0.58,0.02-1.08,0.17-1.52,0.44c-0.44,0.28-0.75,0.67-0.94,1.16v4.21h-1.15v-6.83h1.07v1.58
			c0.24-0.47,0.54-0.85,0.93-1.14c0.38-0.29,0.79-0.46,1.23-0.49c0.09,0,0.16,0,0.22,0s0.11,0,0.16,0.01V11.8z"/>
		<path class="st1" d="M64.8,17.75c-0.51,0-0.98-0.1-1.41-0.29c-0.42-0.19-0.78-0.45-1.09-0.77c-0.3-0.32-0.53-0.7-0.7-1.12
			c-0.17-0.43-0.25-0.88-0.25-1.35c0-0.48,0.08-0.93,0.25-1.36c0.17-0.43,0.41-0.8,0.71-1.12c0.3-0.32,0.66-0.58,1.09-0.77
			c0.42-0.19,0.89-0.29,1.39-0.29c0.51,0,0.97,0.1,1.4,0.29c0.43,0.19,0.79,0.45,1.09,0.77c0.3,0.32,0.54,0.7,0.71,1.12
			c0.17,0.43,0.26,0.88,0.26,1.36c0,0.47-0.08,0.92-0.25,1.35c-0.17,0.43-0.4,0.8-0.71,1.12c-0.31,0.32-0.67,0.58-1.09,0.77
			C65.79,17.65,65.32,17.75,64.8,17.75z M62.54,14.23c0,0.36,0.06,0.69,0.18,0.99c0.12,0.31,0.28,0.57,0.48,0.8
			c0.2,0.23,0.44,0.41,0.72,0.54c0.27,0.13,0.57,0.2,0.88,0.2c0.31,0,0.61-0.07,0.88-0.2c0.27-0.13,0.52-0.31,0.73-0.54
			c0.21-0.23,0.37-0.5,0.49-0.81s0.18-0.64,0.18-1c0-0.35-0.06-0.68-0.18-0.99s-0.28-0.58-0.49-0.81c-0.21-0.23-0.45-0.41-0.73-0.54
			c-0.27-0.13-0.57-0.2-0.88-0.2c-0.31,0-0.61,0.07-0.88,0.2c-0.27,0.14-0.51,0.32-0.72,0.55c-0.2,0.23-0.37,0.5-0.48,0.81
			C62.6,13.54,62.54,13.87,62.54,14.23z"/>
		<path class="st1" d="M72.38,17.7c-0.46,0-0.89-0.1-1.27-0.29c-0.39-0.19-0.72-0.45-1-0.77c-0.28-0.32-0.49-0.69-0.65-1.11
			c-0.15-0.42-0.23-0.85-0.23-1.31c0-0.48,0.08-0.93,0.23-1.37s0.37-0.81,0.65-1.13c0.28-0.32,0.61-0.58,1-0.76
			c0.39-0.19,0.82-0.28,1.29-0.28c0.58,0,1.07,0.14,1.49,0.42c0.42,0.28,0.77,0.63,1.06,1.06v-1.36h1.02v6.75
			c0,0.49-0.09,0.92-0.27,1.29c-0.18,0.37-0.43,0.68-0.75,0.93c-0.31,0.25-0.68,0.44-1.1,0.58c-0.42,0.13-0.87,0.2-1.35,0.2
			c-0.78,0-1.41-0.13-1.89-0.4c-0.48-0.27-0.89-0.63-1.21-1.1l0.67-0.59c0.27,0.4,0.62,0.7,1.05,0.9c0.43,0.2,0.89,0.3,1.39,0.3
			c0.31,0,0.61-0.04,0.9-0.13c0.28-0.09,0.53-0.22,0.74-0.39c0.21-0.17,0.38-0.39,0.5-0.65c0.13-0.26,0.19-0.57,0.19-0.93v-1.2
			c-0.13,0.21-0.29,0.4-0.46,0.57c-0.18,0.17-0.37,0.31-0.58,0.43c-0.21,0.12-0.43,0.21-0.67,0.27
			C72.86,17.67,72.62,17.7,72.38,17.7z M72.73,16.76c0.24,0,0.48-0.04,0.71-0.13c0.23-0.09,0.44-0.2,0.63-0.35
			c0.19-0.14,0.35-0.31,0.48-0.49c0.13-0.18,0.22-0.37,0.26-0.56v-1.96c-0.1-0.24-0.22-0.45-0.37-0.64
			c-0.15-0.19-0.32-0.36-0.52-0.5c-0.19-0.14-0.4-0.25-0.62-0.33c-0.22-0.08-0.45-0.12-0.67-0.12c-0.35,0-0.66,0.07-0.94,0.22
			c-0.27,0.15-0.51,0.34-0.7,0.59c-0.19,0.24-0.34,0.52-0.44,0.83c-0.1,0.31-0.16,0.62-0.16,0.94c0,0.34,0.06,0.66,0.18,0.97
			c0.12,0.31,0.29,0.57,0.5,0.8c0.21,0.23,0.46,0.41,0.74,0.54S72.4,16.76,72.73,16.76z"/>
		<path class="st1" d="M81.42,11.8c-0.58,0.02-1.08,0.17-1.52,0.44c-0.44,0.28-0.75,0.67-0.94,1.16v4.21h-1.15v-6.83h1.07v1.58
			c0.24-0.47,0.54-0.85,0.93-1.14c0.38-0.29,0.79-0.46,1.23-0.49c0.09,0,0.16,0,0.22,0s0.11,0,0.16,0.01V11.8z"/>
		<path class="st1" d="M85.43,17.75c-0.51,0-0.99-0.09-1.41-0.28c-0.43-0.19-0.79-0.44-1.1-0.77c-0.31-0.32-0.54-0.7-0.71-1.13
			c-0.17-0.43-0.25-0.89-0.25-1.37s0.08-0.93,0.25-1.36c0.17-0.43,0.41-0.8,0.72-1.12c0.31-0.32,0.68-0.58,1.1-0.76
			c0.43-0.19,0.9-0.28,1.41-0.28c0.51,0,0.98,0.1,1.41,0.29c0.42,0.19,0.78,0.45,1.08,0.76c0.3,0.32,0.53,0.69,0.69,1.11
			c0.16,0.42,0.24,0.86,0.24,1.31c0,0.1,0,0.18-0.01,0.26c0,0.08-0.01,0.14-0.02,0.18h-5.66c0.03,0.34,0.1,0.65,0.24,0.93
			c0.13,0.28,0.3,0.52,0.51,0.72c0.21,0.2,0.45,0.36,0.71,0.47c0.27,0.11,0.55,0.17,0.84,0.17c0.21,0,0.41-0.03,0.61-0.08
			s0.39-0.13,0.56-0.23c0.17-0.1,0.33-0.21,0.46-0.35c0.14-0.14,0.24-0.3,0.31-0.47l0.99,0.27c-0.11,0.25-0.27,0.48-0.46,0.69
			c-0.2,0.21-0.42,0.39-0.68,0.54c-0.26,0.15-0.54,0.27-0.86,0.36C86.09,17.71,85.77,17.75,85.43,17.75z M87.77,13.75
			c-0.03-0.32-0.11-0.62-0.24-0.9c-0.14-0.27-0.31-0.51-0.51-0.7c-0.2-0.19-0.44-0.34-0.71-0.45c-0.27-0.11-0.56-0.16-0.86-0.16
			c-0.31,0-0.59,0.05-0.86,0.16c-0.27,0.11-0.51,0.26-0.71,0.46c-0.2,0.2-0.37,0.43-0.5,0.7c-0.13,0.27-0.2,0.57-0.23,0.89H87.77z"
			/>
		<path class="st1" d="M92.53,17.75c-0.55,0-1.09-0.09-1.62-0.26s-0.99-0.42-1.37-0.74l0.5-0.77c0.4,0.31,0.8,0.53,1.2,0.69
			c0.4,0.15,0.82,0.23,1.27,0.23c0.5,0,0.89-0.1,1.18-0.29c0.29-0.2,0.44-0.47,0.44-0.83c0-0.17-0.04-0.31-0.12-0.43
			c-0.08-0.12-0.2-0.22-0.35-0.31c-0.16-0.09-0.36-0.17-0.6-0.24c-0.24-0.07-0.53-0.14-0.85-0.22c-0.41-0.1-0.76-0.2-1.06-0.3
			c-0.3-0.1-0.54-0.21-0.73-0.34c-0.19-0.13-0.33-0.29-0.42-0.47c-0.09-0.18-0.13-0.41-0.13-0.68c0-0.34,0.07-0.64,0.2-0.91
			c0.14-0.27,0.32-0.49,0.56-0.67c0.24-0.18,0.51-0.31,0.83-0.41c0.32-0.09,0.66-0.14,1.03-0.14c0.51,0,0.99,0.08,1.44,0.25
			c0.44,0.17,0.82,0.38,1.12,0.65l-0.52,0.69c-0.29-0.25-0.61-0.44-0.97-0.57c-0.36-0.13-0.72-0.19-1.1-0.19
			c-0.42,0-0.77,0.09-1.07,0.27c-0.29,0.18-0.44,0.46-0.44,0.86c0,0.16,0.03,0.29,0.08,0.39c0.06,0.1,0.15,0.2,0.28,0.27
			c0.13,0.08,0.3,0.15,0.5,0.21c0.2,0.06,0.45,0.13,0.74,0.2c0.45,0.1,0.85,0.21,1.18,0.32c0.34,0.11,0.61,0.24,0.84,0.39
			c0.22,0.15,0.39,0.32,0.5,0.52c0.11,0.2,0.16,0.44,0.16,0.73c0,0.64-0.24,1.14-0.73,1.52C94.01,17.56,93.35,17.75,92.53,17.75z"/>
		<path class="st1" d="M98.98,17.75c-0.55,0-1.09-0.09-1.62-0.26s-0.99-0.42-1.37-0.74l0.5-0.77c0.4,0.31,0.8,0.53,1.2,0.69
			c0.4,0.15,0.82,0.23,1.27,0.23c0.5,0,0.89-0.1,1.18-0.29c0.29-0.2,0.44-0.47,0.44-0.83c0-0.17-0.04-0.31-0.12-0.43
			c-0.08-0.12-0.2-0.22-0.35-0.31s-0.36-0.17-0.6-0.24c-0.24-0.07-0.53-0.14-0.85-0.22c-0.41-0.1-0.76-0.2-1.06-0.3
			c-0.3-0.1-0.54-0.21-0.73-0.34c-0.19-0.13-0.33-0.29-0.42-0.47c-0.09-0.18-0.13-0.41-0.13-0.68c0-0.34,0.07-0.64,0.2-0.91
			c0.14-0.27,0.32-0.49,0.56-0.67c0.24-0.18,0.51-0.31,0.83-0.41c0.32-0.09,0.66-0.14,1.03-0.14c0.51,0,0.99,0.08,1.44,0.25
			c0.44,0.17,0.82,0.38,1.12,0.65l-0.52,0.69c-0.29-0.25-0.61-0.44-0.97-0.57c-0.36-0.13-0.72-0.19-1.1-0.19
			c-0.42,0-0.77,0.09-1.07,0.27c-0.29,0.18-0.44,0.46-0.44,0.86c0,0.16,0.03,0.29,0.08,0.39c0.06,0.1,0.15,0.2,0.28,0.27
			c0.13,0.08,0.3,0.15,0.5,0.21c0.2,0.06,0.45,0.13,0.74,0.2c0.45,0.1,0.85,0.21,1.18,0.32c0.34,0.11,0.61,0.24,0.84,0.39
			c0.22,0.15,0.39,0.32,0.5,0.52c0.11,0.2,0.16,0.44,0.16,0.73c0,0.64-0.24,1.14-0.73,1.52C100.47,17.56,99.81,17.75,98.98,17.75z"
			/>
		<path class="st1" d="M109.86,17.75c-0.53,0-1.02-0.13-1.45-0.39c-0.44-0.26-0.78-0.6-1.03-1.02v1.28h-1.02V8.07h1.15v4.08
			c0.29-0.44,0.64-0.8,1.06-1.07c0.42-0.27,0.91-0.41,1.46-0.41c0.47,0,0.89,0.1,1.27,0.3c0.37,0.2,0.7,0.46,0.96,0.79
			c0.27,0.33,0.47,0.71,0.61,1.14c0.14,0.43,0.22,0.87,0.22,1.33c0,0.48-0.08,0.93-0.25,1.36c-0.17,0.43-0.39,0.8-0.68,1.12
			c-0.29,0.32-0.63,0.57-1.03,0.76C110.74,17.66,110.32,17.75,109.86,17.75z M109.58,16.76c0.34,0,0.65-0.07,0.94-0.21
			c0.29-0.14,0.54-0.33,0.75-0.56c0.21-0.24,0.37-0.5,0.48-0.8c0.11-0.3,0.17-0.62,0.17-0.95c0-0.33-0.05-0.65-0.16-0.96
			c-0.11-0.31-0.26-0.58-0.46-0.82c-0.2-0.23-0.43-0.43-0.71-0.57c-0.27-0.14-0.58-0.22-0.91-0.22c-0.24,0-0.48,0.04-0.69,0.13
			c-0.22,0.09-0.42,0.2-0.61,0.35c-0.19,0.14-0.35,0.31-0.5,0.5c-0.14,0.19-0.27,0.4-0.37,0.61v1.97c0.04,0.22,0.14,0.42,0.28,0.6
			c0.14,0.18,0.31,0.34,0.51,0.48c0.2,0.14,0.41,0.24,0.63,0.32C109.15,16.72,109.37,16.76,109.58,16.76z"/>
		<path class="st1" d="M114.58,19.48c0.11,0.02,0.23,0.03,0.34,0.04c0.11,0.01,0.2,0.01,0.26,0.01c0.1,0,0.2-0.02,0.28-0.07
			c0.08-0.05,0.17-0.14,0.25-0.28c0.08-0.14,0.18-0.33,0.28-0.58c0.1-0.25,0.24-0.57,0.39-0.97l-2.89-6.83h1.19l2.33,5.79l2.12-5.79
			h1.1l-3.32,8.62c-0.12,0.31-0.32,0.57-0.61,0.8c-0.28,0.23-0.67,0.35-1.17,0.35c-0.08,0-0.16,0-0.24-0.01
			c-0.08-0.01-0.19-0.03-0.31-0.05V19.48z"/>
	</g>
</g>
</svg>
