<?xml version="1.0" encoding="UTF-8"?>
<svg width="87px" height="79px" viewBox="0 0 87 79" version="1.1" xmlns="http://www.w3.org/2000/svg" xmlns:xlink="http://www.w3.org/1999/xlink">
    <!-- Generator: Sketch 50.2 (55047) - http://www.bohemiancoding.com/sketch -->
    <title>logo/thl-color</title>
    <desc>Created with Sketch.</desc>
    <defs>
        <rect id="path-1" x="0" y="0" width="87" height="79"></rect>
    </defs>
    <g id="1.-Homepage" stroke="none" stroke-width="1" fill="none" fill-rule="evenodd">
        <g id="✔︎-THL-001_home_r8a" transform="translate(-246.000000, -89.000000)">
            <g id="logo/thl-color" transform="translate(246.000000, 89.000000)">
                <mask id="mask-2" fill="white">
                    <use xlink:href="#path-1"></use>
                </mask>
                <g id="Mask"></g>
                <g id="element/logo/thl-partners-white" mask="url(#mask-2)" fill="#FFFFFF">
                    <path d="M0,78.6946346 L0,0 L86.248964,0 L86.248964,78.6946346 L0,78.6946346 Z M2.64189189,2.61915385 L2.64189189,76.0732019 L83.6070721,76.0732019 L83.6070721,57.9199135 L63.7676126,57.9199135 L63.7676126,29.704 L69.6127027,29.704 L69.6127027,52.8039038 L83.6070721,52.8039038 L83.6070721,2.61915385 L2.64189189,2.61915385 Z M54.0485901,29.704076 L60.371518,29.704076 L60.371518,57.920749 L54.0485901,57.920749 L54.0202568,57.920749 L54.0202568,45.8193163 L42.5161577,45.8193163 L42.5130946,45.8193163 L42.4548964,45.8193163 L42.4548964,57.920749 L36.1916982,57.920749 L36.1916982,29.704076 L36.1756171,29.704076 L36.1916982,29.704076 L42.5161577,29.704076 L42.5161577,40.580249 L54.0202568,40.580249 L54.0202568,29.704076 L54.0485901,29.704076 Z M9.90525676,29.7026327 L33.1607973,29.7026327 L33.1607973,34.9439788 L24.596473,34.9439788 L24.596473,57.9193058 L18.3156622,57.9193058 L18.3156622,34.9439788 L9.90525676,34.9439788 L9.90525676,29.7026327 Z" id="Combined-Shape"></path>
                    <g id="Group-2" stroke-width="1" transform="translate(107.207207, 29.625000)">
                        <path d="M36.7456532,15.6849942 C37.5389865,15.5832058 38.0673649,15.2535327 38.3361486,14.6974942 C38.488536,14.3959269 38.5658784,13.9583885 38.5658784,13.3841192 C38.5658784,12.2181096 38.1477703,11.3681 37.3161486,10.8424462 C36.4822297,10.3145135 35.2884009,10.0516865 33.7346622,10.0516865 C31.9397072,10.0516865 30.668536,10.5348019 29.9173198,11.5048308 C29.4976802,12.0358019 29.223536,12.8311192 29.0964189,13.8854654 L25.8832658,13.8854654 C25.9468243,11.3726577 26.7646622,9.62326346 28.3367793,8.64411923 C29.9104279,7.65889808 31.7352477,7.16818654 33.810473,7.16818654 C36.2195721,7.16818654 38.1730405,7.62319615 39.6762387,8.533975 C41.1664189,9.44551346 41.911509,10.8599173 41.911509,12.7840231 L41.911509,24.491975 C41.911509,24.8482346 41.9865541,25.1330904 42.1328153,25.3480615 C42.2790766,25.5599942 42.5869144,25.6724173 43.0609234,25.6724173 C43.2133108,25.6724173 43.3840766,25.6595038 43.5778153,25.6405135 C43.768491,25.6222827 43.9714189,25.5911385 44.1896622,25.5546769 L44.1896622,28.0811577 C43.6536261,28.2308019 43.2431757,28.3242346 42.9644369,28.3644942 C42.6849324,28.4001962 42.3012838,28.4207058 41.8180856,28.4207058 C40.6311486,28.4207058 39.7688964,28.0021577 39.2320946,27.1688596 C38.9533559,26.7252442 38.7565541,26.0985615 38.6401577,25.2910904 C37.9402477,26.20035 36.9317342,26.9911096 35.6192117,27.66185 C34.3051577,28.3325904 32.8593919,28.6668212 31.2765541,28.6668212 C29.377455,28.6668212 27.824482,28.0940712 26.6191667,26.95085 C25.4138514,25.8099077 24.8127252,24.3780327 24.8127252,22.6582635 C24.8127252,20.7759365 25.4046622,19.317475 26.5893018,18.2821192 C27.775473,17.2429654 29.331509,16.6064077 31.2581757,16.3678885 L36.7456532,15.6849942 Z M29.4976802,24.9105231 C30.2236261,25.4802346 31.0858784,25.7635712 32.0806081,25.7635712 C33.2920495,25.7635712 34.4621396,25.4878308 35.5993018,24.9295135 C37.5129505,24.0088596 38.4701577,22.5010231 38.4701577,20.4029654 L38.4701577,17.6539173 C38.0482207,17.9213019 37.5083559,18.1438692 36.8467342,18.3201 C36.1843468,18.5001288 35.5357432,18.626225 34.8993919,18.7014269 L32.8203378,18.9657731 C31.5698423,19.1313692 30.6340766,19.3903981 30.0053829,19.7458981 C28.9394369,20.3368788 28.4079955,21.2833596 28.4079955,22.5830615 C28.4079955,23.5660038 28.7717342,24.3453692 29.4976802,24.9105231 Z" id="Combined-Shape"></path>
                        <path d="M105.927153,8.21964615 C107.28409,8.89798269 108.319405,9.77381923 109.026207,10.8501942 C109.710802,11.8726365 110.167198,13.0697904 110.396162,14.4363385 C110.598324,15.3721846 110.700171,16.8648288 110.700171,18.9150308 L95.7991351,18.9150308 C95.8603964,20.9819442 96.348955,22.6417038 97.2594505,23.8882327 C98.1722432,25.1393192 99.5812523,25.7629635 101.492604,25.7629635 C103.276838,25.7629635 104.699631,25.1735019 105.764045,23.9907808 C106.357514,23.3056077 106.777919,22.5118096 107.028324,21.6086269 L110.413009,21.6086269 C110.32418,22.35305 110.026297,23.1863481 109.524721,24.1047231 C109.020847,25.0185404 108.457243,25.7728385 107.838505,26.3516654 C106.798595,27.3642327 105.516703,28.0471269 103.982874,28.4003481 C103.160441,28.6031654 102.230036,28.702675 101.192423,28.702675 C98.6577387,28.702675 96.5120631,27.7858192 94.7485045,25.9429923 C92.988009,24.1047231 92.1073784,21.5281077 92.1073784,18.2116269 C92.1073784,14.9490788 92.9933694,12.2980212 94.7684144,10.2614923 C96.5426937,8.22344423 98.8606667,7.20555962 101.726162,7.20555962 C103.169631,7.20555962 104.570216,7.54434808 105.927153,8.21964615 Z M107.162333,16.2001654 C107.02373,14.7204346 106.699811,13.5377135 106.192874,12.6527615 C105.257874,11.0074346 103.694946,10.1832519 101.507919,10.1832519 C99.9396306,10.1832519 98.6263423,10.7491654 97.5634595,11.8817519 C96.5005766,13.0135788 95.940036,14.4545692 95.8772432,16.2001654 L107.162333,16.2001654 Z" id="Combined-Shape"></path>
                        <path d="M0.460072072,0.110220192 L13.0331802,0.110220192 C15.5211532,0.110220192 17.528991,0.807547115 19.0566937,2.20675865 C20.5843964,3.60293173 21.3486306,5.56805673 21.3486306,8.09833558 C21.3486306,10.2746337 20.6663333,12.169874 19.3017387,13.7810183 C17.9379099,15.3921625 15.8511982,16.2003933 13.0408378,16.2003933 L4.26745946,16.2003933 L4.26745946,27.9835471 L0.460072072,27.9835471 L0.460072072,0.110220192 Z M15.2248018,3.94096058 C14.3893514,3.54899904 13.2422342,3.35377788 11.7865135,3.35377788 L4.26745946,3.35377788 L4.26745946,13.0115279 L11.7865135,13.0115279 C13.484982,13.0115279 14.8602973,12.6545087 15.9178198,11.9305952 C16.9768739,11.2097202 17.502955,9.93888365 17.502955,8.11732596 C17.502955,6.06712404 16.7448468,4.67702788 15.2248018,3.94096058 Z" id="Combined-Shape"></path>
                        <path d="M47.6516892,7.66186058 L50.9222748,7.66186058 L50.9222748,11.1728029 C51.189527,10.4899087 51.8465541,9.65888942 52.8918243,8.67670673 C53.9370946,7.69908173 55.1416441,7.20533173 56.5070045,7.20533173 C56.5713288,7.20533173 56.6800676,7.2136875 56.832455,7.22584135 C56.9856081,7.23723558 57.2475,7.26458173 57.6181306,7.30104327 L57.6181306,10.9061779 C57.4129054,10.8697163 57.2252928,10.8438894 57.0522297,10.8324952 C56.8806982,10.8188221 56.6938514,10.8127452 56.4893919,10.8127452 C54.7526351,10.8127452 53.4217342,11.3649856 52.4920946,12.4717452 C51.5601577,13.5785048 51.0945721,14.8531394 51.0945721,16.2971683 L51.0945721,27.983851 L47.6516892,27.983851 L47.6516892,7.66186058 Z" id="Fill-24"></path>
                        <path d="M61.2918919,1.98700192 L64.7715315,1.98700192 L64.7715315,7.66056923 L68.0421171,7.66056923 L68.0421171,10.4529154 L64.7715315,10.4529154 L64.7715315,23.7135212 C64.7715315,24.4252808 65.0127477,24.9000404 65.4982432,25.1378 C65.767027,25.2768096 66.2142342,25.3482135 66.8368018,25.3482135 C67.0014414,25.3482135 67.1813964,25.3406173 67.3736036,25.3315019 C67.5635135,25.325425 67.7863514,25.3049154 68.0421171,25.2669346 L68.0421171,27.9840788 C67.6477477,28.0987808 67.2372973,28.1800596 66.81,28.2324731 C66.3811712,28.2810885 65.9178829,28.3053962 65.4216667,28.3053962 C63.8143243,28.3053962 62.7246396,27.8982423 62.1503153,27.083175 C61.5775225,26.2650692 61.2918919,25.2076846 61.2918919,23.9049442 L61.2918919,10.4529154 L58.5167568,10.4529154 L58.5167568,7.66056923 L61.2918919,7.66056923 L61.2918919,1.98700192 Z" id="Fill-25"></path>
                        <path d="M71.4839279,7.66186058 L74.7568108,7.66186058 L74.7568108,10.5461202 C75.723973,9.35732212 76.7539279,8.50427404 77.835955,7.9839375 C78.9218108,7.46663942 80.1248288,7.20533173 81.4526667,7.20533173 C84.3587477,7.20533173 86.3237027,8.21258173 87.3421712,10.2240433 C87.905009,11.324726 88.1845135,12.898649 88.1845135,14.948851 L88.1845135,27.983851 L84.684964,27.983851 L84.684964,15.1774952 C84.684964,13.9362837 84.5004144,12.9358702 84.129018,12.177774 C83.5179369,10.9122548 82.4083423,10.281774 80.801,10.281774 C79.9846937,10.281774 79.3154144,10.3638125 78.7939279,10.5256106 C77.848973,10.8059087 77.0211802,11.3634663 76.3067207,12.1960048 C75.7308649,12.8667452 75.3602342,13.5610337 75.1879369,14.2750721 C75.0156396,14.9891106 74.9306396,16.0100337 74.9306396,17.3363221 L74.9306396,27.983851 L71.4839279,27.983851 L71.4839279,7.66186058 Z" id="Fill-26"></path>
                        <path d="M115.156545,7.66186058 L118.427131,7.66186058 L118.427131,11.1728029 C118.694383,10.4899087 119.35141,9.65888942 120.39668,8.67670673 C121.443482,7.69908173 122.648797,7.20533173 124.014923,7.20533173 C124.076185,7.20533173 124.185689,7.2136875 124.338077,7.22584135 C124.491995,7.23723558 124.752356,7.26458173 125.122986,7.30104327 L125.122986,10.9061779 C124.918527,10.8697163 124.730149,10.8438894 124.559383,10.8324952 C124.385554,10.8188221 124.19641,10.8127452 123.992716,10.8127452 C122.258257,10.8127452 120.928122,11.3649856 119.995419,12.4717452 C119.065014,13.5785048 118.599428,14.8531394 118.599428,16.2971683 L118.599428,27.983851 L115.156545,27.983851 L115.156545,7.66186058 Z" id="Fill-28"></path>
                        <path d="M130.153991,21.6087029 C130.257369,22.7466067 130.551423,23.6194048 131.031559,24.2278567 C131.916784,25.3277798 133.45291,25.878501 135.640703,25.878501 C136.940973,25.878501 138.087324,25.6035202 139.074396,25.0512798 C140.063766,24.5020779 140.559216,23.6520683 140.559216,22.501251 C140.559216,21.6284529 140.164847,20.9653087 139.374577,20.5080202 C138.868405,20.230001 137.871378,19.9064048 136.380432,19.5395106 L133.599937,18.8558567 C131.825658,18.4281933 130.516198,17.9465971 129.67309,17.4141067 C128.170658,16.491174 127.419441,15.2142606 127.419441,13.5818471 C127.419441,11.658501 128.126243,10.1035683 129.542144,8.91401058 C130.958045,7.72369327 132.858676,7.13043365 135.249396,7.13043365 C138.376018,7.13043365 140.63273,8.0313375 142.013405,9.82478942 C142.881018,10.961174 143.303721,12.1902317 143.276153,13.5058856 L140.025477,13.5058856 C139.960387,12.738674 139.680117,12.0398279 139.181604,11.411626 C138.371423,10.5160394 136.967775,10.072424 134.973721,10.072424 C133.641288,10.072424 132.632775,10.3162606 131.94818,10.8084913 C131.261288,11.3014817 130.917459,11.9494337 130.917459,12.758424 C130.917459,13.6395779 131.370027,14.3429817 132.269802,14.8754721 C132.789757,15.1914721 133.557054,15.4687317 134.569396,15.7057317 L136.889667,16.2564529 C139.409036,16.852751 141.099847,17.4285394 141.95827,17.9838183 C143.296063,18.8558567 143.963811,20.230001 143.963811,22.100174 C143.963811,23.9103375 143.262369,25.4721067 141.864081,26.7877606 C140.463495,28.1034144 138.330838,28.7635202 135.463811,28.7635202 C132.377009,28.7635202 130.191514,28.0768279 128.905793,26.7034433 C127.623135,25.3277798 126.934712,23.6330779 126.845117,21.6087029 L130.153991,21.6087029 Z" id="Fill-29"></path>
                    </g>
                    <path d="M111.021486,64.8785981 C111.333919,65.0160885 111.591216,65.2348577 111.792613,65.5318673 C111.975631,65.7954538 112.094324,66.1000596 112.149459,66.4464442 C112.18009,66.6515404 112.193108,66.9462712 112.187748,67.3275981 L108.935541,67.3275981 C108.953919,67.7712135 109.110135,68.0834154 109.401892,68.2611654 C109.581847,68.3743481 109.795495,68.4298 110.045901,68.4298 C110.311622,68.4298 110.528333,68.3621942 110.694505,68.2247038 C110.784099,68.1540596 110.86527,68.0515115 110.934955,67.9208577 L112.126486,67.9208577 C112.094324,68.1852038 111.951126,68.4503096 111.694595,68.7222519 C111.293333,69.1521942 110.733559,69.3686846 110.013739,69.3686846 C109.42027,69.3686846 108.895721,69.1863769 108.440856,68.8225212 C107.986757,68.459425 107.759324,67.8676846 107.759324,67.0488192 C107.759324,66.2838865 107.965315,65.6951846 108.374234,65.2842327 C108.784685,64.8763192 109.316892,64.6719827 109.971622,64.6719827 C110.360631,64.6719827 110.710586,64.7395885 111.021486,64.8785981 Z M109.274009,65.8805308 C109.110135,66.0468865 109.005991,66.27705 108.96464,66.563425 L110.974775,66.563425 C110.953333,66.2565404 110.849955,66.0233385 110.663874,65.8630596 C110.477793,65.7050596 110.247297,65.6268192 109.971622,65.6268192 C109.671441,65.6268192 109.440946,65.7080981 109.274009,65.8805308 Z" id="Combined-Shape"></path>
                    <path d="M114.514527,67.8035731 C114.539032,68.0086692 114.591869,68.155275 114.674572,68.2426308 C114.819302,68.3960731 115.088851,68.4743135 115.481689,68.4743135 C115.712185,68.4743135 115.895968,68.4401308 116.030743,68.3732846 C116.16705,68.3034 116.234437,68.2038904 116.234437,68.0679192 C116.234437,67.9372654 116.180068,67.8400346 116.071329,67.7709096 C115.961824,67.7025442 115.553671,67.5870827 114.848401,67.4222462 C114.34223,67.2976692 113.983851,67.1419481 113.777095,66.9550827 C113.569572,66.7712558 113.464662,66.5053904 113.464662,66.1582462 C113.464662,65.7472942 113.627005,65.3955923 113.951689,65.1031404 C114.275608,64.80765 114.732005,64.6610442 115.321644,64.6610442 C115.879887,64.6610442 116.334752,64.7734673 116.686239,64.9922365 C117.037725,65.2148038 117.239887,65.5953712 117.291194,66.1362173 L116.124932,66.1362173 C116.106554,65.9873327 116.065203,65.8703519 115.997815,65.7845154 C115.868401,65.6287942 115.649392,65.5467558 115.338491,65.5467558 C115.084257,65.5467558 114.903536,65.587775 114.794797,65.6660154 C114.68759,65.7442558 114.632455,65.8361692 114.632455,65.9417558 C114.632455,66.0754481 114.689122,66.1711596 114.804752,66.2319288 C114.921149,66.2934577 115.326239,66.3982846 116.025383,66.5517269 C116.489437,66.6595923 116.839392,66.8244288 117.069887,67.0424385 C117.299617,67.2650058 117.415248,67.5407462 117.415248,67.8764962 C117.415248,68.3155538 117.250608,68.6733327 116.920563,68.9498327 C116.589752,69.2293712 116.079752,69.3691404 115.390563,69.3691404 C114.68759,69.3691404 114.168401,69.2225346 113.83223,68.925525 C113.498356,68.6353519 113.330653,68.2593423 113.330653,67.8035731 L114.514527,67.8035731 Z" id="Fill-31"></path>
                    <path d="M118.646599,65.6537856 L118.646599,64.8296029 L119.269932,64.8296029 L119.269932,63.5914298 L120.424707,63.5914298 L120.424707,64.8296029 L121.151419,64.8296029 L121.151419,65.6537856 L120.424707,65.6537856 L120.424707,67.9949202 C120.424707,68.1757087 120.44768,68.2904106 120.494392,68.3344683 C120.541869,68.378526 120.68277,68.4005548 120.920158,68.4005548 C120.956149,68.4005548 120.994437,68.4005548 121.033491,68.398276 C121.072545,68.3959971 121.112365,68.3929587 121.151419,68.3914394 L121.151419,69.2589202 L120.597005,69.2786702 C120.045653,69.2961413 119.668131,69.2027087 119.466734,68.9922952 C119.335788,68.8601221 119.269932,68.6565452 119.269932,68.3808048 L119.269932,65.6537856 L118.646599,65.6537856 Z" id="Fill-32"></path>
                    <polygon id="Fill-33" points="122.710135 69.2184327 123.950676 69.2184327 123.950676 68.0022885 122.710135 68.0022885"></polygon>
                    <path d="M129.107036,65.1538067 L129.107036,64.3660856 C129.474604,64.349374 129.733432,64.3227875 129.879694,64.2916433 C130.113252,64.2399894 130.303928,64.1389606 130.452486,63.9824798 C130.552802,63.8776529 130.630144,63.7356048 130.680685,63.5601337 C130.711315,63.4537875 130.725099,63.3755471 130.725099,63.3246529 L131.70145,63.3246529 L131.70145,69.2185087 L130.50609,69.2185087 L130.50609,65.1538067 L129.107036,65.1538067 Z" id="Fill-34"></path>
                    <path d="M134.824167,63.8637519 C135.190968,63.4710308 135.668041,63.2758096 136.255383,63.2758096 C137.158986,63.2758096 137.780023,63.6730885 138.115428,64.4668865 C138.306104,64.9173385 138.40259,65.5098385 138.40259,66.2443865 C138.40259,66.9546269 138.310698,67.5494058 138.12768,68.0256846 C137.778491,68.9341846 137.136779,69.3884346 136.201779,69.3884346 C135.756869,69.3884346 135.356374,69.2577808 135.001059,68.9964731 C134.647275,68.7351654 134.443581,68.3523192 134.392275,67.8524923 L135.555473,67.8524923 C135.583041,68.024925 135.65732,68.1639346 135.776014,68.2763577 C135.897005,68.3834635 136.05705,68.4373962 136.255383,68.4373962 C136.641329,68.4373962 136.910113,68.2247038 137.067095,67.8038769 C137.150563,67.5691558 137.205698,67.2296077 137.22714,66.7837135 C137.119932,66.9181654 137.005833,67.017675 136.886374,67.0883192 C136.668896,67.2174538 136.398581,67.2835404 136.080023,67.2835404 C135.606014,67.2835404 135.187905,67.1225019 134.821104,66.7973865 C134.456599,66.4737904 134.272815,66.0073865 134.272815,65.3974154 C134.272815,64.7654154 134.456599,64.2564731 134.824167,63.8637519 Z M136.789887,66.2026077 C137.054842,66.0332135 137.185788,65.7422808 137.185788,65.3275308 C137.185788,64.9948192 137.106914,64.7312327 136.949932,64.5352519 C136.79295,64.3407904 136.57777,64.2443192 136.305158,64.2443192 C136.105293,64.2443192 135.934527,64.2997712 135.79286,64.410675 C135.567725,64.5838673 135.456689,64.8785981 135.456689,65.2918288 C135.456689,65.6420115 135.527905,65.9033192 135.671104,66.0765115 C135.815068,66.2535019 136.035608,66.3408577 136.334257,66.3408577 C136.494302,66.3408577 136.645923,66.2930019 136.789887,66.2026077 Z" id="Combined-Shape"></path>
                    <path d="M143.945279,64.3095702 C143.769153,64.4804837 143.52564,64.7843298 143.213973,65.2218683 C142.900775,65.6578875 142.639649,66.1106183 142.429829,66.5747433 C142.263658,66.9393587 142.112036,67.3898106 141.978793,67.9177433 C141.844018,68.4441567 141.776631,68.8809356 141.776631,69.2182048 L140.564423,69.2182048 C140.600414,68.159301 140.950369,67.0616567 141.613523,65.9222337 C142.042351,65.2142721 142.403027,64.7220413 142.692486,64.4440221 L139.733568,64.4440221 L139.749649,63.4018298 L143.945279,63.4018298 L143.945279,64.3095702 Z" id="Fill-36"></path>
                    <path d="M149.40473,67.9496471 L148.733919,67.9496471 L148.733919,69.2174452 L147.589865,69.2174452 L147.589865,67.9496471 L145.238964,67.9496471 L145.238964,66.9370798 L147.422162,63.3615702 L148.733919,63.3615702 L148.733919,67.0426663 L149.40473,67.0426663 L149.40473,67.9496471 Z M147.589865,67.0426663 L147.589865,64.505551 L146.107342,67.0426663 L147.589865,67.0426663 Z" id="Combined-Shape"></path>
                </g>
            </g>
        </g>
    </g>
</svg>